  0
SECTION
  2
BLOCKS
  0
ENDSEC
  0
SECTION
  2
ENTITIES
  0
LINE
  8
0
 10
285.75
 20
179.07
 11
-285.75
 21
179.07
  0
LINE
  8
0
 10
-285.75
 20
179.07
 11
-285.75
 21
-179.07
  0
LINE
  8
0
 10
-285.75
 20
-179.07
 11
285.75
 21
-179.07
  0
LINE
  8
0
 10
285.75
 20
-179.07
 11
285.75
 21
179.07
  0
LINE
  8
0
 10
272.069
 20
163.35
 11
270.481
 21
164.504
  0
LINE
  8
0
 10
270.481
 20
164.504
 11
269.875
 21
166.37
  0
LINE
  8
0
 10
269.875
 20
166.37
 11
270.481
 21
168.236
  0
LINE
  8
0
 10
270.481
 20
168.236
 11
272.069
 21
169.39
  0
LINE
  8
0
 10
272.069
 20
169.39
 11
274.031
 21
169.39
  0
LINE
  8
0
 10
274.031
 20
169.39
 11
275.619
 21
168.236
  0
LINE
  8
0
 10
275.619
 20
168.236
 11
276.225
 21
166.37
  0
LINE
  8
0
 10
276.225
 20
166.37
 11
275.619
 21
164.504
  0
LINE
  8
0
 10
275.619
 20
164.504
 11
274.031
 21
163.35
  0
LINE
  8
0
 10
274.031
 20
163.35
 11
272.069
 21
163.35
  0
LINE
  8
0
 10
-218.67
 20
56.1583
 11
-229.058
 21
58.3663
  0
LINE
  8
0
 10
-229.058
 20
58.3663
 11
-238.76
 21
62.6859
  0
LINE
  8
0
 10
-238.76
 20
62.6859
 11
-247.352
 21
68.9282
  0
LINE
  8
0
 10
-247.352
 20
68.9282
 11
-254.458
 21
76.8205
  0
LINE
  8
0
 10
-254.458
 20
76.8205
 11
-259.768
 21
86.0178
  0
LINE
  8
0
 10
-259.768
 20
86.0178
 11
-263.05
 21
96.1181
  0
LINE
  8
0
 10
-263.05
 20
96.1181
 11
-264.16
 21
106.68
  0
LINE
  8
0
 10
-264.16
 20
106.68
 11
-263.05
 21
117.242
  0
LINE
  8
0
 10
-263.05
 20
117.242
 11
-259.768
 21
127.342
  0
LINE
  8
0
 10
-259.768
 20
127.342
 11
-254.458
 21
136.539
  0
LINE
  8
0
 10
-254.458
 20
136.539
 11
-247.352
 21
144.432
  0
LINE
  8
0
 10
-247.352
 20
144.432
 11
-238.76
 21
150.674
  0
LINE
  8
0
 10
-238.76
 20
150.674
 11
-229.058
 21
154.994
  0
LINE
  8
0
 10
-229.058
 20
154.994
 11
-218.67
 21
157.202
  0
LINE
  8
0
 10
-218.67
 20
157.202
 11
-208.05
 21
157.202
  0
LINE
  8
0
 10
-208.05
 20
157.202
 11
-197.662
 21
154.994
  0
LINE
  8
0
 10
-197.662
 20
154.994
 11
-187.96
 21
150.674
  0
LINE
  8
0
 10
-187.96
 20
150.674
 11
-179.368
 21
144.432
  0
LINE
  8
0
 10
-179.368
 20
144.432
 11
-172.262
 21
136.539
  0
LINE
  8
0
 10
-172.262
 20
136.539
 11
-166.952
 21
127.342
  0
LINE
  8
0
 10
-166.952
 20
127.342
 11
-163.67
 21
117.242
  0
LINE
  8
0
 10
-163.67
 20
117.242
 11
-162.56
 21
106.68
  0
LINE
  8
0
 10
-162.56
 20
106.68
 11
-163.67
 21
96.1181
  0
LINE
  8
0
 10
-163.67
 20
96.1181
 11
-166.952
 21
86.0178
  0
LINE
  8
0
 10
-166.952
 20
86.0178
 11
-172.262
 21
76.8205
  0
LINE
  8
0
 10
-172.262
 20
76.8205
 11
-179.368
 21
68.9282
  0
LINE
  8
0
 10
-179.368
 20
68.9282
 11
-187.96
 21
62.6859
  0
LINE
  8
0
 10
-187.96
 20
62.6859
 11
-197.662
 21
58.3663
  0
LINE
  8
0
 10
-197.662
 20
58.3663
 11
-208.05
 21
56.1583
  0
LINE
  8
0
 10
-208.05
 20
56.1583
 11
-218.67
 21
56.1583
  0
LINE
  8
0
 10
-111.99
 20
56.1583
 11
-122.378
 21
58.3663
  0
LINE
  8
0
 10
-122.378
 20
58.3663
 11
-132.08
 21
62.6859
  0
LINE
  8
0
 10
-132.08
 20
62.6859
 11
-140.672
 21
68.9282
  0
LINE
  8
0
 10
-140.672
 20
68.9282
 11
-147.778
 21
76.8205
  0
LINE
  8
0
 10
-147.778
 20
76.8205
 11
-153.088
 21
86.0178
  0
LINE
  8
0
 10
-153.088
 20
86.0178
 11
-156.37
 21
96.1181
  0
LINE
  8
0
 10
-156.37
 20
96.1181
 11
-157.48
 21
106.68
  0
LINE
  8
0
 10
-157.48
 20
106.68
 11
-156.37
 21
117.242
  0
LINE
  8
0
 10
-156.37
 20
117.242
 11
-153.088
 21
127.342
  0
LINE
  8
0
 10
-153.088
 20
127.342
 11
-147.778
 21
136.539
  0
LINE
  8
0
 10
-147.778
 20
136.539
 11
-140.672
 21
144.432
  0
LINE
  8
0
 10
-140.672
 20
144.432
 11
-132.08
 21
150.674
  0
LINE
  8
0
 10
-132.08
 20
150.674
 11
-122.378
 21
154.994
  0
LINE
  8
0
 10
-122.378
 20
154.994
 11
-111.99
 21
157.202
  0
LINE
  8
0
 10
-111.99
 20
157.202
 11
-101.37
 21
157.202
  0
LINE
  8
0
 10
-101.37
 20
157.202
 11
-90.9819
 21
154.994
  0
LINE
  8
0
 10
-90.9819
 20
154.994
 11
-81.28
 21
150.674
  0
LINE
  8
0
 10
-81.28
 20
150.674
 11
-72.6882
 21
144.432
  0
LINE
  8
0
 10
-72.6882
 20
144.432
 11
-65.5819
 21
136.539
  0
LINE
  8
0
 10
-65.5819
 20
136.539
 11
-60.2719
 21
127.342
  0
LINE
  8
0
 10
-60.2719
 20
127.342
 11
-56.9901
 21
117.242
  0
LINE
  8
0
 10
-56.9901
 20
117.242
 11
-55.88
 21
106.68
  0
LINE
  8
0
 10
-55.88
 20
106.68
 11
-56.9901
 21
96.1181
  0
LINE
  8
0
 10
-56.9901
 20
96.1181
 11
-60.2719
 21
86.0178
  0
LINE
  8
0
 10
-60.2719
 20
86.0178
 11
-65.5819
 21
76.8205
  0
LINE
  8
0
 10
-65.5819
 20
76.8205
 11
-72.6882
 21
68.9282
  0
LINE
  8
0
 10
-72.6882
 20
68.9282
 11
-81.28
 21
62.6859
  0
LINE
  8
0
 10
-81.28
 20
62.6859
 11
-90.9819
 21
58.3663
  0
LINE
  8
0
 10
-90.9819
 20
58.3663
 11
-101.37
 21
56.1583
  0
LINE
  8
0
 10
-101.37
 20
56.1583
 11
-111.99
 21
56.1583
  0
LINE
  8
0
 10
-5.31004
 20
56.1583
 11
-15.6981
 21
58.3663
  0
LINE
  8
0
 10
-15.6981
 20
58.3663
 11
-25.4
 21
62.6859
  0
LINE
  8
0
 10
-25.4
 20
62.6859
 11
-33.9918
 21
68.9282
  0
LINE
  8
0
 10
-33.9918
 20
68.9282
 11
-41.0981
 21
76.8205
  0
LINE
  8
0
 10
-41.0981
 20
76.8205
 11
-46.4081
 21
86.0178
  0
LINE
  8
0
 10
-46.4081
 20
86.0178
 11
-49.6899
 21
96.1181
  0
LINE
  8
0
 10
-49.6899
 20
96.1181
 11
-50.8
 21
106.68
  0
LINE
  8
0
 10
-50.8
 20
106.68
 11
-49.6899
 21
117.242
  0
LINE
  8
0
 10
-49.6899
 20
117.242
 11
-46.4081
 21
127.342
  0
LINE
  8
0
 10
-46.4081
 20
127.342
 11
-41.0981
 21
136.539
  0
LINE
  8
0
 10
-41.0981
 20
136.539
 11
-33.9918
 21
144.432
  0
LINE
  8
0
 10
-33.9918
 20
144.432
 11
-25.4
 21
150.674
  0
LINE
  8
0
 10
-25.4
 20
150.674
 11
-15.6981
 21
154.994
  0
LINE
  8
0
 10
-15.6981
 20
154.994
 11
-5.31004
 21
157.202
  0
LINE
  8
0
 10
-5.31004
 20
157.202
 11
5.31004
 21
157.202
  0
LINE
  8
0
 10
5.31004
 20
157.202
 11
15.6981
 21
154.994
  0
LINE
  8
0
 10
15.6981
 20
154.994
 11
25.4
 21
150.674
  0
LINE
  8
0
 10
25.4
 20
150.674
 11
33.9918
 21
144.432
  0
LINE
  8
0
 10
33.9918
 20
144.432
 11
41.0981
 21
136.539
  0
LINE
  8
0
 10
41.0981
 20
136.539
 11
46.4081
 21
127.342
  0
LINE
  8
0
 10
46.4081
 20
127.342
 11
49.6899
 21
117.242
  0
LINE
  8
0
 10
49.6899
 20
117.242
 11
50.8
 21
106.68
  0
LINE
  8
0
 10
50.8
 20
106.68
 11
49.6899
 21
96.1181
  0
LINE
  8
0
 10
49.6899
 20
96.1181
 11
46.4081
 21
86.0178
  0
LINE
  8
0
 10
46.4081
 20
86.0178
 11
41.0981
 21
76.8205
  0
LINE
  8
0
 10
41.0981
 20
76.8205
 11
33.9918
 21
68.9282
  0
LINE
  8
0
 10
33.9918
 20
68.9282
 11
25.4
 21
62.6859
  0
LINE
  8
0
 10
25.4
 20
62.6859
 11
15.6981
 21
58.3663
  0
LINE
  8
0
 10
15.6981
 20
58.3663
 11
5.31004
 21
56.1583
  0
LINE
  8
0
 10
5.31004
 20
56.1583
 11
-5.31004
 21
56.1583
  0
LINE
  8
0
 10
101.37
 20
56.1583
 11
90.9819
 21
58.3663
  0
LINE
  8
0
 10
90.9819
 20
58.3663
 11
81.28
 21
62.6859
  0
LINE
  8
0
 10
81.28
 20
62.6859
 11
72.6882
 21
68.9282
  0
LINE
  8
0
 10
72.6882
 20
68.9282
 11
65.5819
 21
76.8205
  0
LINE
  8
0
 10
65.5819
 20
76.8205
 11
60.2719
 21
86.0178
  0
LINE
  8
0
 10
60.2719
 20
86.0178
 11
56.9901
 21
96.1181
  0
LINE
  8
0
 10
56.9901
 20
96.1181
 11
55.88
 21
106.68
  0
LINE
  8
0
 10
55.88
 20
106.68
 11
56.9901
 21
117.242
  0
LINE
  8
0
 10
56.9901
 20
117.242
 11
60.2719
 21
127.342
  0
LINE
  8
0
 10
60.2719
 20
127.342
 11
65.5819
 21
136.539
  0
LINE
  8
0
 10
65.5819
 20
136.539
 11
72.6882
 21
144.432
  0
LINE
  8
0
 10
72.6882
 20
144.432
 11
81.28
 21
150.674
  0
LINE
  8
0
 10
81.28
 20
150.674
 11
90.9819
 21
154.994
  0
LINE
  8
0
 10
90.9819
 20
154.994
 11
101.37
 21
157.202
  0
LINE
  8
0
 10
101.37
 20
157.202
 11
111.99
 21
157.202
  0
LINE
  8
0
 10
111.99
 20
157.202
 11
122.378
 21
154.994
  0
LINE
  8
0
 10
122.378
 20
154.994
 11
132.08
 21
150.674
  0
LINE
  8
0
 10
132.08
 20
150.674
 11
140.672
 21
144.432
  0
LINE
  8
0
 10
140.672
 20
144.432
 11
147.778
 21
136.539
  0
LINE
  8
0
 10
147.778
 20
136.539
 11
153.088
 21
127.342
  0
LINE
  8
0
 10
153.088
 20
127.342
 11
156.37
 21
117.242
  0
LINE
  8
0
 10
156.37
 20
117.242
 11
157.48
 21
106.68
  0
LINE
  8
0
 10
157.48
 20
106.68
 11
156.37
 21
96.1181
  0
LINE
  8
0
 10
156.37
 20
96.1181
 11
153.088
 21
86.0178
  0
LINE
  8
0
 10
153.088
 20
86.0178
 11
147.778
 21
76.8205
  0
LINE
  8
0
 10
147.778
 20
76.8205
 11
140.672
 21
68.9282
  0
LINE
  8
0
 10
140.672
 20
68.9282
 11
132.08
 21
62.6859
  0
LINE
  8
0
 10
132.08
 20
62.6859
 11
122.378
 21
58.3663
  0
LINE
  8
0
 10
122.378
 20
58.3663
 11
111.99
 21
56.1583
  0
LINE
  8
0
 10
111.99
 20
56.1583
 11
101.37
 21
56.1583
  0
LINE
  8
0
 10
208.05
 20
56.1583
 11
197.662
 21
58.3663
  0
LINE
  8
0
 10
197.662
 20
58.3663
 11
187.96
 21
62.6859
  0
LINE
  8
0
 10
187.96
 20
62.6859
 11
179.368
 21
68.9282
  0
LINE
  8
0
 10
179.368
 20
68.9282
 11
172.262
 21
76.8205
  0
LINE
  8
0
 10
172.262
 20
76.8205
 11
166.952
 21
86.0178
  0
LINE
  8
0
 10
166.952
 20
86.0178
 11
163.67
 21
96.1181
  0
LINE
  8
0
 10
163.67
 20
96.1181
 11
162.56
 21
106.68
  0
LINE
  8
0
 10
162.56
 20
106.68
 11
163.67
 21
117.242
  0
LINE
  8
0
 10
163.67
 20
117.242
 11
166.952
 21
127.342
  0
LINE
  8
0
 10
166.952
 20
127.342
 11
172.262
 21
136.539
  0
LINE
  8
0
 10
172.262
 20
136.539
 11
179.368
 21
144.432
  0
LINE
  8
0
 10
179.368
 20
144.432
 11
187.96
 21
150.674
  0
LINE
  8
0
 10
187.96
 20
150.674
 11
197.662
 21
154.994
  0
LINE
  8
0
 10
197.662
 20
154.994
 11
208.05
 21
157.202
  0
LINE
  8
0
 10
208.05
 20
157.202
 11
218.67
 21
157.202
  0
LINE
  8
0
 10
218.67
 20
157.202
 11
229.058
 21
154.994
  0
LINE
  8
0
 10
229.058
 20
154.994
 11
238.76
 21
150.674
  0
LINE
  8
0
 10
238.76
 20
150.674
 11
247.352
 21
144.432
  0
LINE
  8
0
 10
247.352
 20
144.432
 11
254.458
 21
136.539
  0
LINE
  8
0
 10
254.458
 20
136.539
 11
259.768
 21
127.342
  0
LINE
  8
0
 10
259.768
 20
127.342
 11
263.05
 21
117.242
  0
LINE
  8
0
 10
263.05
 20
117.242
 11
264.16
 21
106.68
  0
LINE
  8
0
 10
264.16
 20
106.68
 11
263.05
 21
96.1181
  0
LINE
  8
0
 10
263.05
 20
96.1181
 11
259.768
 21
86.0178
  0
LINE
  8
0
 10
259.768
 20
86.0178
 11
254.458
 21
76.8205
  0
LINE
  8
0
 10
254.458
 20
76.8205
 11
247.352
 21
68.9282
  0
LINE
  8
0
 10
247.352
 20
68.9282
 11
238.76
 21
62.6859
  0
LINE
  8
0
 10
238.76
 20
62.6859
 11
229.058
 21
58.3663
  0
LINE
  8
0
 10
229.058
 20
58.3663
 11
218.67
 21
56.1583
  0
LINE
  8
0
 10
218.67
 20
56.1583
 11
208.05
 21
56.1583
  0
LINE
  8
0
 10
-111.99
 20
-50.5217
 11
-122.378
 21
-48.3137
  0
LINE
  8
0
 10
-122.378
 20
-48.3137
 11
-132.08
 21
-43.9941
  0
LINE
  8
0
 10
-132.08
 20
-43.9941
 11
-140.672
 21
-37.7518
  0
LINE
  8
0
 10
-140.672
 20
-37.7518
 11
-147.778
 21
-29.8595
  0
LINE
  8
0
 10
-147.778
 20
-29.8595
 11
-153.088
 21
-20.6622
  0
LINE
  8
0
 10
-153.088
 20
-20.6622
 11
-156.37
 21
-10.5619
  0
LINE
  8
0
 10
-156.37
 20
-10.5619
 11
-157.48
 21
0
  0
LINE
  8
0
 10
-157.48
 20
0
 11
-156.37
 21
10.5619
  0
LINE
  8
0
 10
-156.37
 20
10.5619
 11
-153.088
 21
20.6622
  0
LINE
  8
0
 10
-153.088
 20
20.6622
 11
-147.778
 21
29.8595
  0
LINE
  8
0
 10
-147.778
 20
29.8595
 11
-140.672
 21
37.7518
  0
LINE
  8
0
 10
-140.672
 20
37.7518
 11
-132.08
 21
43.9941
  0
LINE
  8
0
 10
-132.08
 20
43.9941
 11
-122.378
 21
48.3137
  0
LINE
  8
0
 10
-122.378
 20
48.3137
 11
-111.99
 21
50.5217
  0
LINE
  8
0
 10
-111.99
 20
50.5217
 11
-101.37
 21
50.5217
  0
LINE
  8
0
 10
-101.37
 20
50.5217
 11
-90.9819
 21
48.3137
  0
LINE
  8
0
 10
-90.9819
 20
48.3137
 11
-81.28
 21
43.9941
  0
LINE
  8
0
 10
-81.28
 20
43.9941
 11
-72.6882
 21
37.7518
  0
LINE
  8
0
 10
-72.6882
 20
37.7518
 11
-65.5819
 21
29.8595
  0
LINE
  8
0
 10
-65.5819
 20
29.8595
 11
-60.2719
 21
20.6622
  0
LINE
  8
0
 10
-60.2719
 20
20.6622
 11
-56.9901
 21
10.5619
  0
LINE
  8
0
 10
-56.9901
 20
10.5619
 11
-55.88
 21
0
  0
LINE
  8
0
 10
-55.88
 20
0
 11
-56.9901
 21
-10.5619
  0
LINE
  8
0
 10
-56.9901
 20
-10.5619
 11
-60.2719
 21
-20.6622
  0
LINE
  8
0
 10
-60.2719
 20
-20.6622
 11
-65.5819
 21
-29.8595
  0
LINE
  8
0
 10
-65.5819
 20
-29.8595
 11
-72.6882
 21
-37.7518
  0
LINE
  8
0
 10
-72.6882
 20
-37.7518
 11
-81.28
 21
-43.9941
  0
LINE
  8
0
 10
-81.28
 20
-43.9941
 11
-90.9819
 21
-48.3137
  0
LINE
  8
0
 10
-90.9819
 20
-48.3137
 11
-101.37
 21
-50.5217
  0
LINE
  8
0
 10
-101.37
 20
-50.5217
 11
-111.99
 21
-50.5217
  0
LINE
  8
0
 10
208.05
 20
-50.5217
 11
197.662
 21
-48.3137
  0
LINE
  8
0
 10
197.662
 20
-48.3137
 11
187.96
 21
-43.9941
  0
LINE
  8
0
 10
187.96
 20
-43.9941
 11
179.368
 21
-37.7518
  0
LINE
  8
0
 10
179.368
 20
-37.7518
 11
172.262
 21
-29.8595
  0
LINE
  8
0
 10
172.262
 20
-29.8595
 11
166.952
 21
-20.6622
  0
LINE
  8
0
 10
166.952
 20
-20.6622
 11
163.67
 21
-10.5619
  0
LINE
  8
0
 10
163.67
 20
-10.5619
 11
162.56
 21
0
  0
LINE
  8
0
 10
162.56
 20
0
 11
163.67
 21
10.5619
  0
LINE
  8
0
 10
163.67
 20
10.5619
 11
166.952
 21
20.6622
  0
LINE
  8
0
 10
166.952
 20
20.6622
 11
172.262
 21
29.8595
  0
LINE
  8
0
 10
172.262
 20
29.8595
 11
179.368
 21
37.7518
  0
LINE
  8
0
 10
179.368
 20
37.7518
 11
187.96
 21
43.9941
  0
LINE
  8
0
 10
187.96
 20
43.9941
 11
197.662
 21
48.3137
  0
LINE
  8
0
 10
197.662
 20
48.3137
 11
208.05
 21
50.5217
  0
LINE
  8
0
 10
208.05
 20
50.5217
 11
218.67
 21
50.5217
  0
LINE
  8
0
 10
218.67
 20
50.5217
 11
229.058
 21
48.3137
  0
LINE
  8
0
 10
229.058
 20
48.3137
 11
238.76
 21
43.9941
  0
LINE
  8
0
 10
238.76
 20
43.9941
 11
247.352
 21
37.7518
  0
LINE
  8
0
 10
247.352
 20
37.7518
 11
254.458
 21
29.8595
  0
LINE
  8
0
 10
254.458
 20
29.8595
 11
259.768
 21
20.6622
  0
LINE
  8
0
 10
259.768
 20
20.6622
 11
263.05
 21
10.5619
  0
LINE
  8
0
 10
263.05
 20
10.5619
 11
264.16
 21
0
  0
LINE
  8
0
 10
264.16
 20
0
 11
263.05
 21
-10.5619
  0
LINE
  8
0
 10
263.05
 20
-10.5619
 11
259.768
 21
-20.6622
  0
LINE
  8
0
 10
259.768
 20
-20.6622
 11
254.458
 21
-29.8595
  0
LINE
  8
0
 10
254.458
 20
-29.8595
 11
247.352
 21
-37.7518
  0
LINE
  8
0
 10
247.352
 20
-37.7518
 11
238.76
 21
-43.9941
  0
LINE
  8
0
 10
238.76
 20
-43.9941
 11
229.058
 21
-48.3137
  0
LINE
  8
0
 10
229.058
 20
-48.3137
 11
218.67
 21
-50.5217
  0
LINE
  8
0
 10
218.67
 20
-50.5217
 11
208.05
 21
-50.5217
  0
LINE
  8
0
 10
101.37
 20
-50.5217
 11
90.9819
 21
-48.3137
  0
LINE
  8
0
 10
90.9819
 20
-48.3137
 11
81.28
 21
-43.9941
  0
LINE
  8
0
 10
81.28
 20
-43.9941
 11
72.6882
 21
-37.7518
  0
LINE
  8
0
 10
72.6882
 20
-37.7518
 11
65.5819
 21
-29.8595
  0
LINE
  8
0
 10
65.5819
 20
-29.8595
 11
60.2719
 21
-20.6622
  0
LINE
  8
0
 10
60.2719
 20
-20.6622
 11
56.9901
 21
-10.5619
  0
LINE
  8
0
 10
56.9901
 20
-10.5619
 11
55.88
 21
0
  0
LINE
  8
0
 10
55.88
 20
0
 11
56.9901
 21
10.5619
  0
LINE
  8
0
 10
56.9901
 20
10.5619
 11
60.2719
 21
20.6622
  0
LINE
  8
0
 10
60.2719
 20
20.6622
 11
65.5819
 21
29.8595
  0
LINE
  8
0
 10
65.5819
 20
29.8595
 11
72.6882
 21
37.7518
  0
LINE
  8
0
 10
72.6882
 20
37.7518
 11
81.28
 21
43.9941
  0
LINE
  8
0
 10
81.28
 20
43.9941
 11
90.9819
 21
48.3137
  0
LINE
  8
0
 10
90.9819
 20
48.3137
 11
101.37
 21
50.5217
  0
LINE
  8
0
 10
101.37
 20
50.5217
 11
111.99
 21
50.5217
  0
LINE
  8
0
 10
111.99
 20
50.5217
 11
122.378
 21
48.3137
  0
LINE
  8
0
 10
122.378
 20
48.3137
 11
132.08
 21
43.9941
  0
LINE
  8
0
 10
132.08
 20
43.9941
 11
140.672
 21
37.7518
  0
LINE
  8
0
 10
140.672
 20
37.7518
 11
147.778
 21
29.8595
  0
LINE
  8
0
 10
147.778
 20
29.8595
 11
153.088
 21
20.6622
  0
LINE
  8
0
 10
153.088
 20
20.6622
 11
156.37
 21
10.5619
  0
LINE
  8
0
 10
156.37
 20
10.5619
 11
157.48
 21
0
  0
LINE
  8
0
 10
157.48
 20
0
 11
156.37
 21
-10.5619
  0
LINE
  8
0
 10
156.37
 20
-10.5619
 11
153.088
 21
-20.6622
  0
LINE
  8
0
 10
153.088
 20
-20.6622
 11
147.778
 21
-29.8595
  0
LINE
  8
0
 10
147.778
 20
-29.8595
 11
140.672
 21
-37.7518
  0
LINE
  8
0
 10
140.672
 20
-37.7518
 11
132.08
 21
-43.9941
  0
LINE
  8
0
 10
132.08
 20
-43.9941
 11
122.378
 21
-48.3137
  0
LINE
  8
0
 10
122.378
 20
-48.3137
 11
111.99
 21
-50.5217
  0
LINE
  8
0
 10
111.99
 20
-50.5217
 11
101.37
 21
-50.5217
  0
LINE
  8
0
 10
-5.31004
 20
-50.5217
 11
-15.6981
 21
-48.3137
  0
LINE
  8
0
 10
-15.6981
 20
-48.3137
 11
-25.4
 21
-43.9941
  0
LINE
  8
0
 10
-25.4
 20
-43.9941
 11
-33.9918
 21
-37.7518
  0
LINE
  8
0
 10
-33.9918
 20
-37.7518
 11
-41.0981
 21
-29.8595
  0
LINE
  8
0
 10
-41.0981
 20
-29.8595
 11
-46.4081
 21
-20.6622
  0
LINE
  8
0
 10
-46.4081
 20
-20.6622
 11
-49.6899
 21
-10.5619
  0
LINE
  8
0
 10
-49.6899
 20
-10.5619
 11
-50.8
 21
0
  0
LINE
  8
0
 10
-50.8
 20
0
 11
-49.6899
 21
10.5619
  0
LINE
  8
0
 10
-49.6899
 20
10.5619
 11
-46.4081
 21
20.6622
  0
LINE
  8
0
 10
-46.4081
 20
20.6622
 11
-41.0981
 21
29.8595
  0
LINE
  8
0
 10
-41.0981
 20
29.8595
 11
-33.9918
 21
37.7518
  0
LINE
  8
0
 10
-33.9918
 20
37.7518
 11
-25.4
 21
43.9941
  0
LINE
  8
0
 10
-25.4
 20
43.9941
 11
-15.6981
 21
48.3137
  0
LINE
  8
0
 10
-15.6981
 20
48.3137
 11
-5.31004
 21
50.5217
  0
LINE
  8
0
 10
-5.31004
 20
50.5217
 11
5.31004
 21
50.5217
  0
LINE
  8
0
 10
5.31004
 20
50.5217
 11
15.6981
 21
48.3137
  0
LINE
  8
0
 10
15.6981
 20
48.3137
 11
25.4
 21
43.9941
  0
LINE
  8
0
 10
25.4
 20
43.9941
 11
33.9918
 21
37.7518
  0
LINE
  8
0
 10
33.9918
 20
37.7518
 11
41.0981
 21
29.8595
  0
LINE
  8
0
 10
41.0981
 20
29.8595
 11
46.4081
 21
20.6622
  0
LINE
  8
0
 10
46.4081
 20
20.6622
 11
49.6899
 21
10.5619
  0
LINE
  8
0
 10
49.6899
 20
10.5619
 11
50.8
 21
0
  0
LINE
  8
0
 10
50.8
 20
0
 11
49.6899
 21
-10.5619
  0
LINE
  8
0
 10
49.6899
 20
-10.5619
 11
46.4081
 21
-20.6622
  0
LINE
  8
0
 10
46.4081
 20
-20.6622
 11
41.0981
 21
-29.8595
  0
LINE
  8
0
 10
41.0981
 20
-29.8595
 11
33.9918
 21
-37.7518
  0
LINE
  8
0
 10
33.9918
 20
-37.7518
 11
25.4
 21
-43.9941
  0
LINE
  8
0
 10
25.4
 20
-43.9941
 11
15.6981
 21
-48.3137
  0
LINE
  8
0
 10
15.6981
 20
-48.3137
 11
5.31004
 21
-50.5217
  0
LINE
  8
0
 10
5.31004
 20
-50.5217
 11
-5.31004
 21
-50.5217
  0
LINE
  8
0
 10
-218.67
 20
-50.5217
 11
-229.058
 21
-48.3137
  0
LINE
  8
0
 10
-229.058
 20
-48.3137
 11
-238.76
 21
-43.9941
  0
LINE
  8
0
 10
-238.76
 20
-43.9941
 11
-247.352
 21
-37.7518
  0
LINE
  8
0
 10
-247.352
 20
-37.7518
 11
-254.458
 21
-29.8595
  0
LINE
  8
0
 10
-254.458
 20
-29.8595
 11
-259.768
 21
-20.6622
  0
LINE
  8
0
 10
-259.768
 20
-20.6622
 11
-263.05
 21
-10.5619
  0
LINE
  8
0
 10
-263.05
 20
-10.5619
 11
-264.16
 21
0
  0
LINE
  8
0
 10
-264.16
 20
0
 11
-263.05
 21
10.5619
  0
LINE
  8
0
 10
-263.05
 20
10.5619
 11
-259.768
 21
20.6622
  0
LINE
  8
0
 10
-259.768
 20
20.6622
 11
-254.458
 21
29.8595
  0
LINE
  8
0
 10
-254.458
 20
29.8595
 11
-247.352
 21
37.7518
  0
LINE
  8
0
 10
-247.352
 20
37.7518
 11
-238.76
 21
43.9941
  0
LINE
  8
0
 10
-238.76
 20
43.9941
 11
-229.058
 21
48.3137
  0
LINE
  8
0
 10
-229.058
 20
48.3137
 11
-218.67
 21
50.5217
  0
LINE
  8
0
 10
-218.67
 20
50.5217
 11
-208.05
 21
50.5217
  0
LINE
  8
0
 10
-208.05
 20
50.5217
 11
-197.662
 21
48.3137
  0
LINE
  8
0
 10
-197.662
 20
48.3137
 11
-187.96
 21
43.9941
  0
LINE
  8
0
 10
-187.96
 20
43.9941
 11
-179.368
 21
37.7518
  0
LINE
  8
0
 10
-179.368
 20
37.7518
 11
-172.262
 21
29.8595
  0
LINE
  8
0
 10
-172.262
 20
29.8595
 11
-166.952
 21
20.6622
  0
LINE
  8
0
 10
-166.952
 20
20.6622
 11
-163.67
 21
10.5619
  0
LINE
  8
0
 10
-163.67
 20
10.5619
 11
-162.56
 21
0
  0
LINE
  8
0
 10
-162.56
 20
0
 11
-163.67
 21
-10.5619
  0
LINE
  8
0
 10
-163.67
 20
-10.5619
 11
-166.952
 21
-20.6622
  0
LINE
  8
0
 10
-166.952
 20
-20.6622
 11
-172.262
 21
-29.8595
  0
LINE
  8
0
 10
-172.262
 20
-29.8595
 11
-179.368
 21
-37.7518
  0
LINE
  8
0
 10
-179.368
 20
-37.7518
 11
-187.96
 21
-43.9941
  0
LINE
  8
0
 10
-187.96
 20
-43.9941
 11
-197.662
 21
-48.3137
  0
LINE
  8
0
 10
-197.662
 20
-48.3137
 11
-208.05
 21
-50.5217
  0
LINE
  8
0
 10
-208.05
 20
-50.5217
 11
-218.67
 21
-50.5217
  0
LINE
  8
0
 10
-218.67
 20
-157.202
 11
-229.058
 21
-154.994
  0
LINE
  8
0
 10
-229.058
 20
-154.994
 11
-238.76
 21
-150.674
  0
LINE
  8
0
 10
-238.76
 20
-150.674
 11
-247.352
 21
-144.432
  0
LINE
  8
0
 10
-247.352
 20
-144.432
 11
-254.458
 21
-136.539
  0
LINE
  8
0
 10
-254.458
 20
-136.539
 11
-259.768
 21
-127.342
  0
LINE
  8
0
 10
-259.768
 20
-127.342
 11
-263.05
 21
-117.242
  0
LINE
  8
0
 10
-263.05
 20
-117.242
 11
-264.16
 21
-106.68
  0
LINE
  8
0
 10
-264.16
 20
-106.68
 11
-263.05
 21
-96.1181
  0
LINE
  8
0
 10
-263.05
 20
-96.1181
 11
-259.768
 21
-86.0178
  0
LINE
  8
0
 10
-259.768
 20
-86.0178
 11
-254.458
 21
-76.8205
  0
LINE
  8
0
 10
-254.458
 20
-76.8205
 11
-247.352
 21
-68.9282
  0
LINE
  8
0
 10
-247.352
 20
-68.9282
 11
-238.76
 21
-62.6859
  0
LINE
  8
0
 10
-238.76
 20
-62.6859
 11
-229.058
 21
-58.3663
  0
LINE
  8
0
 10
-229.058
 20
-58.3663
 11
-218.67
 21
-56.1583
  0
LINE
  8
0
 10
-218.67
 20
-56.1583
 11
-208.05
 21
-56.1583
  0
LINE
  8
0
 10
-208.05
 20
-56.1583
 11
-197.662
 21
-58.3663
  0
LINE
  8
0
 10
-197.662
 20
-58.3663
 11
-187.96
 21
-62.6859
  0
LINE
  8
0
 10
-187.96
 20
-62.6859
 11
-179.368
 21
-68.9282
  0
LINE
  8
0
 10
-179.368
 20
-68.9282
 11
-172.262
 21
-76.8205
  0
LINE
  8
0
 10
-172.262
 20
-76.8205
 11
-166.952
 21
-86.0178
  0
LINE
  8
0
 10
-166.952
 20
-86.0178
 11
-163.67
 21
-96.1181
  0
LINE
  8
0
 10
-163.67
 20
-96.1181
 11
-162.56
 21
-106.68
  0
LINE
  8
0
 10
-162.56
 20
-106.68
 11
-163.67
 21
-117.242
  0
LINE
  8
0
 10
-163.67
 20
-117.242
 11
-166.952
 21
-127.342
  0
LINE
  8
0
 10
-166.952
 20
-127.342
 11
-172.262
 21
-136.539
  0
LINE
  8
0
 10
-172.262
 20
-136.539
 11
-179.368
 21
-144.432
  0
LINE
  8
0
 10
-179.368
 20
-144.432
 11
-187.96
 21
-150.674
  0
LINE
  8
0
 10
-187.96
 20
-150.674
 11
-197.662
 21
-154.994
  0
LINE
  8
0
 10
-197.662
 20
-154.994
 11
-208.05
 21
-157.202
  0
LINE
  8
0
 10
-208.05
 20
-157.202
 11
-218.67
 21
-157.202
  0
LINE
  8
0
 10
-111.99
 20
-157.202
 11
-122.378
 21
-154.994
  0
LINE
  8
0
 10
-122.378
 20
-154.994
 11
-132.08
 21
-150.674
  0
LINE
  8
0
 10
-132.08
 20
-150.674
 11
-140.672
 21
-144.432
  0
LINE
  8
0
 10
-140.672
 20
-144.432
 11
-147.778
 21
-136.539
  0
LINE
  8
0
 10
-147.778
 20
-136.539
 11
-153.088
 21
-127.342
  0
LINE
  8
0
 10
-153.088
 20
-127.342
 11
-156.37
 21
-117.242
  0
LINE
  8
0
 10
-156.37
 20
-117.242
 11
-157.48
 21
-106.68
  0
LINE
  8
0
 10
-157.48
 20
-106.68
 11
-156.37
 21
-96.1181
  0
LINE
  8
0
 10
-156.37
 20
-96.1181
 11
-153.088
 21
-86.0178
  0
LINE
  8
0
 10
-153.088
 20
-86.0178
 11
-147.778
 21
-76.8205
  0
LINE
  8
0
 10
-147.778
 20
-76.8205
 11
-140.672
 21
-68.9282
  0
LINE
  8
0
 10
-140.672
 20
-68.9282
 11
-132.08
 21
-62.6859
  0
LINE
  8
0
 10
-132.08
 20
-62.6859
 11
-122.378
 21
-58.3663
  0
LINE
  8
0
 10
-122.378
 20
-58.3663
 11
-111.99
 21
-56.1583
  0
LINE
  8
0
 10
-111.99
 20
-56.1583
 11
-101.37
 21
-56.1583
  0
LINE
  8
0
 10
-101.37
 20
-56.1583
 11
-90.9819
 21
-58.3663
  0
LINE
  8
0
 10
-90.9819
 20
-58.3663
 11
-81.28
 21
-62.6859
  0
LINE
  8
0
 10
-81.28
 20
-62.6859
 11
-72.6882
 21
-68.9282
  0
LINE
  8
0
 10
-72.6882
 20
-68.9282
 11
-65.5819
 21
-76.8205
  0
LINE
  8
0
 10
-65.5819
 20
-76.8205
 11
-60.2719
 21
-86.0178
  0
LINE
  8
0
 10
-60.2719
 20
-86.0178
 11
-56.9901
 21
-96.1181
  0
LINE
  8
0
 10
-56.9901
 20
-96.1181
 11
-55.88
 21
-106.68
  0
LINE
  8
0
 10
-55.88
 20
-106.68
 11
-56.9901
 21
-117.242
  0
LINE
  8
0
 10
-56.9901
 20
-117.242
 11
-60.2719
 21
-127.342
  0
LINE
  8
0
 10
-60.2719
 20
-127.342
 11
-65.5819
 21
-136.539
  0
LINE
  8
0
 10
-65.5819
 20
-136.539
 11
-72.6882
 21
-144.432
  0
LINE
  8
0
 10
-72.6882
 20
-144.432
 11
-81.28
 21
-150.674
  0
LINE
  8
0
 10
-81.28
 20
-150.674
 11
-90.9819
 21
-154.994
  0
LINE
  8
0
 10
-90.9819
 20
-154.994
 11
-101.37
 21
-157.202
  0
LINE
  8
0
 10
-101.37
 20
-157.202
 11
-111.99
 21
-157.202
  0
LINE
  8
0
 10
-5.31004
 20
-157.202
 11
-15.6981
 21
-154.994
  0
LINE
  8
0
 10
-15.6981
 20
-154.994
 11
-25.4
 21
-150.674
  0
LINE
  8
0
 10
-25.4
 20
-150.674
 11
-33.9918
 21
-144.432
  0
LINE
  8
0
 10
-33.9918
 20
-144.432
 11
-41.0981
 21
-136.539
  0
LINE
  8
0
 10
-41.0981
 20
-136.539
 11
-46.4081
 21
-127.342
  0
LINE
  8
0
 10
-46.4081
 20
-127.342
 11
-49.6899
 21
-117.242
  0
LINE
  8
0
 10
-49.6899
 20
-117.242
 11
-50.8
 21
-106.68
  0
LINE
  8
0
 10
-50.8
 20
-106.68
 11
-49.6899
 21
-96.1181
  0
LINE
  8
0
 10
-49.6899
 20
-96.1181
 11
-46.4081
 21
-86.0178
  0
LINE
  8
0
 10
-46.4081
 20
-86.0178
 11
-41.0981
 21
-76.8205
  0
LINE
  8
0
 10
-41.0981
 20
-76.8205
 11
-33.9918
 21
-68.9282
  0
LINE
  8
0
 10
-33.9918
 20
-68.9282
 11
-25.4
 21
-62.6859
  0
LINE
  8
0
 10
-25.4
 20
-62.6859
 11
-15.6981
 21
-58.3663
  0
LINE
  8
0
 10
-15.6981
 20
-58.3663
 11
-5.31004
 21
-56.1583
  0
LINE
  8
0
 10
-5.31004
 20
-56.1583
 11
5.31004
 21
-56.1583
  0
LINE
  8
0
 10
5.31004
 20
-56.1583
 11
15.6981
 21
-58.3663
  0
LINE
  8
0
 10
15.6981
 20
-58.3663
 11
25.4
 21
-62.6859
  0
LINE
  8
0
 10
25.4
 20
-62.6859
 11
33.9918
 21
-68.9282
  0
LINE
  8
0
 10
33.9918
 20
-68.9282
 11
41.0981
 21
-76.8205
  0
LINE
  8
0
 10
41.0981
 20
-76.8205
 11
46.4081
 21
-86.0178
  0
LINE
  8
0
 10
46.4081
 20
-86.0178
 11
49.6899
 21
-96.1181
  0
LINE
  8
0
 10
49.6899
 20
-96.1181
 11
50.8
 21
-106.68
  0
LINE
  8
0
 10
50.8
 20
-106.68
 11
49.6899
 21
-117.242
  0
LINE
  8
0
 10
49.6899
 20
-117.242
 11
46.4081
 21
-127.342
  0
LINE
  8
0
 10
46.4081
 20
-127.342
 11
41.0981
 21
-136.539
  0
LINE
  8
0
 10
41.0981
 20
-136.539
 11
33.9918
 21
-144.432
  0
LINE
  8
0
 10
33.9918
 20
-144.432
 11
25.4
 21
-150.674
  0
LINE
  8
0
 10
25.4
 20
-150.674
 11
15.6981
 21
-154.994
  0
LINE
  8
0
 10
15.6981
 20
-154.994
 11
5.31004
 21
-157.202
  0
LINE
  8
0
 10
5.31004
 20
-157.202
 11
-5.31004
 21
-157.202
  0
LINE
  8
0
 10
101.37
 20
-157.202
 11
90.9819
 21
-154.994
  0
LINE
  8
0
 10
90.9819
 20
-154.994
 11
81.28
 21
-150.674
  0
LINE
  8
0
 10
81.28
 20
-150.674
 11
72.6882
 21
-144.432
  0
LINE
  8
0
 10
72.6882
 20
-144.432
 11
65.5819
 21
-136.539
  0
LINE
  8
0
 10
65.5819
 20
-136.539
 11
60.2719
 21
-127.342
  0
LINE
  8
0
 10
60.2719
 20
-127.342
 11
56.9901
 21
-117.242
  0
LINE
  8
0
 10
56.9901
 20
-117.242
 11
55.88
 21
-106.68
  0
LINE
  8
0
 10
55.88
 20
-106.68
 11
56.9901
 21
-96.1181
  0
LINE
  8
0
 10
56.9901
 20
-96.1181
 11
60.2719
 21
-86.0178
  0
LINE
  8
0
 10
60.2719
 20
-86.0178
 11
65.5819
 21
-76.8205
  0
LINE
  8
0
 10
65.5819
 20
-76.8205
 11
72.6882
 21
-68.9282
  0
LINE
  8
0
 10
72.6882
 20
-68.9282
 11
81.28
 21
-62.6859
  0
LINE
  8
0
 10
81.28
 20
-62.6859
 11
90.9819
 21
-58.3663
  0
LINE
  8
0
 10
90.9819
 20
-58.3663
 11
101.37
 21
-56.1583
  0
LINE
  8
0
 10
101.37
 20
-56.1583
 11
111.99
 21
-56.1583
  0
LINE
  8
0
 10
111.99
 20
-56.1583
 11
122.378
 21
-58.3663
  0
LINE
  8
0
 10
122.378
 20
-58.3663
 11
132.08
 21
-62.6859
  0
LINE
  8
0
 10
132.08
 20
-62.6859
 11
140.672
 21
-68.9282
  0
LINE
  8
0
 10
140.672
 20
-68.9282
 11
147.778
 21
-76.8205
  0
LINE
  8
0
 10
147.778
 20
-76.8205
 11
153.088
 21
-86.0178
  0
LINE
  8
0
 10
153.088
 20
-86.0178
 11
156.37
 21
-96.1181
  0
LINE
  8
0
 10
156.37
 20
-96.1181
 11
157.48
 21
-106.68
  0
LINE
  8
0
 10
157.48
 20
-106.68
 11
156.37
 21
-117.242
  0
LINE
  8
0
 10
156.37
 20
-117.242
 11
153.088
 21
-127.342
  0
LINE
  8
0
 10
153.088
 20
-127.342
 11
147.778
 21
-136.539
  0
LINE
  8
0
 10
147.778
 20
-136.539
 11
140.672
 21
-144.432
  0
LINE
  8
0
 10
140.672
 20
-144.432
 11
132.08
 21
-150.674
  0
LINE
  8
0
 10
132.08
 20
-150.674
 11
122.378
 21
-154.994
  0
LINE
  8
0
 10
122.378
 20
-154.994
 11
111.99
 21
-157.202
  0
LINE
  8
0
 10
111.99
 20
-157.202
 11
101.37
 21
-157.202
  0
LINE
  8
0
 10
208.05
 20
-157.202
 11
197.662
 21
-154.994
  0
LINE
  8
0
 10
197.662
 20
-154.994
 11
187.96
 21
-150.674
  0
LINE
  8
0
 10
187.96
 20
-150.674
 11
179.368
 21
-144.432
  0
LINE
  8
0
 10
179.368
 20
-144.432
 11
172.262
 21
-136.539
  0
LINE
  8
0
 10
172.262
 20
-136.539
 11
166.952
 21
-127.342
  0
LINE
  8
0
 10
166.952
 20
-127.342
 11
163.67
 21
-117.242
  0
LINE
  8
0
 10
163.67
 20
-117.242
 11
162.56
 21
-106.68
  0
LINE
  8
0
 10
162.56
 20
-106.68
 11
163.67
 21
-96.1181
  0
LINE
  8
0
 10
163.67
 20
-96.1181
 11
166.952
 21
-86.0178
  0
LINE
  8
0
 10
166.952
 20
-86.0178
 11
172.262
 21
-76.8205
  0
LINE
  8
0
 10
172.262
 20
-76.8205
 11
179.368
 21
-68.9282
  0
LINE
  8
0
 10
179.368
 20
-68.9282
 11
187.96
 21
-62.6859
  0
LINE
  8
0
 10
187.96
 20
-62.6859
 11
197.662
 21
-58.3663
  0
LINE
  8
0
 10
197.662
 20
-58.3663
 11
208.05
 21
-56.1583
  0
LINE
  8
0
 10
208.05
 20
-56.1583
 11
218.67
 21
-56.1583
  0
LINE
  8
0
 10
218.67
 20
-56.1583
 11
229.058
 21
-58.3663
  0
LINE
  8
0
 10
229.058
 20
-58.3663
 11
238.76
 21
-62.6859
  0
LINE
  8
0
 10
238.76
 20
-62.6859
 11
247.352
 21
-68.9282
  0
LINE
  8
0
 10
247.352
 20
-68.9282
 11
254.458
 21
-76.8205
  0
LINE
  8
0
 10
254.458
 20
-76.8205
 11
259.768
 21
-86.0178
  0
LINE
  8
0
 10
259.768
 20
-86.0178
 11
263.05
 21
-96.1181
  0
LINE
  8
0
 10
263.05
 20
-96.1181
 11
264.16
 21
-106.68
  0
LINE
  8
0
 10
264.16
 20
-106.68
 11
263.05
 21
-117.242
  0
LINE
  8
0
 10
263.05
 20
-117.242
 11
259.768
 21
-127.342
  0
LINE
  8
0
 10
259.768
 20
-127.342
 11
254.458
 21
-136.539
  0
LINE
  8
0
 10
254.458
 20
-136.539
 11
247.352
 21
-144.432
  0
LINE
  8
0
 10
247.352
 20
-144.432
 11
238.76
 21
-150.674
  0
LINE
  8
0
 10
238.76
 20
-150.674
 11
229.058
 21
-154.994
  0
LINE
  8
0
 10
229.058
 20
-154.994
 11
218.67
 21
-157.202
  0
LINE
  8
0
 10
218.67
 20
-157.202
 11
208.05
 21
-157.202
  0
LINE
  8
0
 10
-274.031
 20
-169.39
 11
-275.619
 21
-168.236
  0
LINE
  8
0
 10
-275.619
 20
-168.236
 11
-276.225
 21
-166.37
  0
LINE
  8
0
 10
-276.225
 20
-166.37
 11
-275.619
 21
-164.504
  0
LINE
  8
0
 10
-275.619
 20
-164.504
 11
-274.031
 21
-163.35
  0
LINE
  8
0
 10
-274.031
 20
-163.35
 11
-272.069
 21
-163.35
  0
LINE
  8
0
 10
-272.069
 20
-163.35
 11
-270.481
 21
-164.504
  0
LINE
  8
0
 10
-270.481
 20
-164.504
 11
-269.875
 21
-166.37
  0
LINE
  8
0
 10
-269.875
 20
-166.37
 11
-270.481
 21
-168.236
  0
LINE
  8
0
 10
-270.481
 20
-168.236
 11
-272.069
 21
-169.39
  0
LINE
  8
0
 10
-272.069
 20
-169.39
 11
-274.031
 21
-169.39
  0
ENDSEC
  0
SECTION
  2
OBJECTS
  0
DICTIONARY
  0
ENDSEC
  0
EOF
