<?xml version="1.0" standalone="no"?>
<!DOCTYPE svg PUBLIC "-//W3C//DTD SVG 1.1//EN" "http://www.w3.org/Graphics/SVG/1.1/DTD/svg11.dtd">
<svg width="572mm" height="360mm" viewBox="-286 -180 572 360" xmlns="http://www.w3.org/2000/svg" version="1.1">
<title>OpenSCAD Model</title>
<path d="
M 285.75,-179.07 L -285.75,-179.07 L -285.75,179.07 L 285.75,179.07 z
M 272.069,-163.35 L 270.481,-164.504 L 269.875,-166.37 L 270.481,-168.236 L 272.069,-169.39 L 274.031,-169.39
 L 275.619,-168.236 L 276.225,-166.37 L 275.619,-164.504 L 274.031,-163.35 z
M -218.67,-56.1583 L -229.058,-58.3663 L -238.76,-62.6859 L -247.352,-68.9282 L -254.458,-76.8205 L -259.768,-86.0178
 L -263.05,-96.1181 L -264.16,-106.68 L -263.05,-117.242 L -259.768,-127.342 L -254.458,-136.539 L -247.352,-144.432
 L -238.76,-150.674 L -229.058,-154.994 L -218.67,-157.202 L -208.05,-157.202 L -197.662,-154.994 L -187.96,-150.674
 L -179.368,-144.432 L -172.262,-136.539 L -166.952,-127.342 L -163.67,-117.242 L -162.56,-106.68 L -163.67,-96.1181
 L -166.952,-86.0178 L -172.262,-76.8205 L -179.368,-68.9282 L -187.96,-62.6859 L -197.662,-58.3663 L -208.05,-56.1583
 z
M -111.99,-56.1583 L -122.378,-58.3663 L -132.08,-62.6859 L -140.672,-68.9282 L -147.778,-76.8205 L -153.088,-86.0178
 L -156.37,-96.1181 L -157.48,-106.68 L -156.37,-117.242 L -153.088,-127.342 L -147.778,-136.539 L -140.672,-144.432
 L -132.08,-150.674 L -122.378,-154.994 L -111.99,-157.202 L -101.37,-157.202 L -90.9819,-154.994 L -81.28,-150.674
 L -72.6882,-144.432 L -65.5819,-136.539 L -60.2719,-127.342 L -56.9901,-117.242 L -55.88,-106.68 L -56.9901,-96.1181
 L -60.2719,-86.0178 L -65.5819,-76.8205 L -72.6882,-68.9282 L -81.28,-62.6859 L -90.9819,-58.3663 L -101.37,-56.1583
 z
M -5.31004,-56.1583 L -15.6981,-58.3663 L -25.4,-62.6859 L -33.9918,-68.9282 L -41.0981,-76.8205 L -46.4081,-86.0178
 L -49.6899,-96.1181 L -50.8,-106.68 L -49.6899,-117.242 L -46.4081,-127.342 L -41.0981,-136.539 L -33.9918,-144.432
 L -25.4,-150.674 L -15.6981,-154.994 L -5.31004,-157.202 L 5.31004,-157.202 L 15.6981,-154.994 L 25.4,-150.674
 L 33.9918,-144.432 L 41.0981,-136.539 L 46.4081,-127.342 L 49.6899,-117.242 L 50.8,-106.68 L 49.6899,-96.1181
 L 46.4081,-86.0178 L 41.0981,-76.8205 L 33.9918,-68.9282 L 25.4,-62.6859 L 15.6981,-58.3663 L 5.31004,-56.1583
 z
M 101.37,-56.1583 L 90.9819,-58.3663 L 81.28,-62.6859 L 72.6882,-68.9282 L 65.5819,-76.8205 L 60.2719,-86.0178
 L 56.9901,-96.1181 L 55.88,-106.68 L 56.9901,-117.242 L 60.2719,-127.342 L 65.5819,-136.539 L 72.6882,-144.432
 L 81.28,-150.674 L 90.9819,-154.994 L 101.37,-157.202 L 111.99,-157.202 L 122.378,-154.994 L 132.08,-150.674
 L 140.672,-144.432 L 147.778,-136.539 L 153.088,-127.342 L 156.37,-117.242 L 157.48,-106.68 L 156.37,-96.1181
 L 153.088,-86.0178 L 147.778,-76.8205 L 140.672,-68.9282 L 132.08,-62.6859 L 122.378,-58.3663 L 111.99,-56.1583
 z
M 208.05,-56.1583 L 197.662,-58.3663 L 187.96,-62.6859 L 179.368,-68.9282 L 172.262,-76.8205 L 166.952,-86.0178
 L 163.67,-96.1181 L 162.56,-106.68 L 163.67,-117.242 L 166.952,-127.342 L 172.262,-136.539 L 179.368,-144.432
 L 187.96,-150.674 L 197.662,-154.994 L 208.05,-157.202 L 218.67,-157.202 L 229.058,-154.994 L 238.76,-150.674
 L 247.352,-144.432 L 254.458,-136.539 L 259.768,-127.342 L 263.05,-117.242 L 264.16,-106.68 L 263.05,-96.1181
 L 259.768,-86.0178 L 254.458,-76.8205 L 247.352,-68.9282 L 238.76,-62.6859 L 229.058,-58.3663 L 218.67,-56.1583
 z
M -111.99,50.5217 L -122.378,48.3137 L -132.08,43.9941 L -140.672,37.7518 L -147.778,29.8595 L -153.088,20.6622
 L -156.37,10.5619 L -157.48,-0 L -156.37,-10.5619 L -153.088,-20.6622 L -147.778,-29.8595 L -140.672,-37.7518
 L -132.08,-43.9941 L -122.378,-48.3137 L -111.99,-50.5217 L -101.37,-50.5217 L -90.9819,-48.3137 L -81.28,-43.9941
 L -72.6882,-37.7518 L -65.5819,-29.8595 L -60.2719,-20.6622 L -56.9901,-10.5619 L -55.88,-0 L -56.9901,10.5619
 L -60.2719,20.6622 L -65.5819,29.8595 L -72.6882,37.7518 L -81.28,43.9941 L -90.9819,48.3137 L -101.37,50.5217
 z
M 208.05,50.5217 L 197.662,48.3137 L 187.96,43.9941 L 179.368,37.7518 L 172.262,29.8595 L 166.952,20.6622
 L 163.67,10.5619 L 162.56,-0 L 163.67,-10.5619 L 166.952,-20.6622 L 172.262,-29.8595 L 179.368,-37.7518
 L 187.96,-43.9941 L 197.662,-48.3137 L 208.05,-50.5217 L 218.67,-50.5217 L 229.058,-48.3137 L 238.76,-43.9941
 L 247.352,-37.7518 L 254.458,-29.8595 L 259.768,-20.6622 L 263.05,-10.5619 L 264.16,-0 L 263.05,10.5619
 L 259.768,20.6622 L 254.458,29.8595 L 247.352,37.7518 L 238.76,43.9941 L 229.058,48.3137 L 218.67,50.5217
 z
M 101.37,50.5217 L 90.9819,48.3137 L 81.28,43.9941 L 72.6882,37.7518 L 65.5819,29.8595 L 60.2719,20.6622
 L 56.9901,10.5619 L 55.88,-0 L 56.9901,-10.5619 L 60.2719,-20.6622 L 65.5819,-29.8595 L 72.6882,-37.7518
 L 81.28,-43.9941 L 90.9819,-48.3137 L 101.37,-50.5217 L 111.99,-50.5217 L 122.378,-48.3137 L 132.08,-43.9941
 L 140.672,-37.7518 L 147.778,-29.8595 L 153.088,-20.6622 L 156.37,-10.5619 L 157.48,-0 L 156.37,10.5619
 L 153.088,20.6622 L 147.778,29.8595 L 140.672,37.7518 L 132.08,43.9941 L 122.378,48.3137 L 111.99,50.5217
 z
M -5.31004,50.5217 L -15.6981,48.3137 L -25.4,43.9941 L -33.9918,37.7518 L -41.0981,29.8595 L -46.4081,20.6622
 L -49.6899,10.5619 L -50.8,-0 L -49.6899,-10.5619 L -46.4081,-20.6622 L -41.0981,-29.8595 L -33.9918,-37.7518
 L -25.4,-43.9941 L -15.6981,-48.3137 L -5.31004,-50.5217 L 5.31004,-50.5217 L 15.6981,-48.3137 L 25.4,-43.9941
 L 33.9918,-37.7518 L 41.0981,-29.8595 L 46.4081,-20.6622 L 49.6899,-10.5619 L 50.8,-0 L 49.6899,10.5619
 L 46.4081,20.6622 L 41.0981,29.8595 L 33.9918,37.7518 L 25.4,43.9941 L 15.6981,48.3137 L 5.31004,50.5217
 z
M -218.67,50.5217 L -229.058,48.3137 L -238.76,43.9941 L -247.352,37.7518 L -254.458,29.8595 L -259.768,20.6622
 L -263.05,10.5619 L -264.16,-0 L -263.05,-10.5619 L -259.768,-20.6622 L -254.458,-29.8595 L -247.352,-37.7518
 L -238.76,-43.9941 L -229.058,-48.3137 L -218.67,-50.5217 L -208.05,-50.5217 L -197.662,-48.3137 L -187.96,-43.9941
 L -179.368,-37.7518 L -172.262,-29.8595 L -166.952,-20.6622 L -163.67,-10.5619 L -162.56,-0 L -163.67,10.5619
 L -166.952,20.6622 L -172.262,29.8595 L -179.368,37.7518 L -187.96,43.9941 L -197.662,48.3137 L -208.05,50.5217
 z
M -218.67,157.202 L -229.058,154.994 L -238.76,150.674 L -247.352,144.432 L -254.458,136.539 L -259.768,127.342
 L -263.05,117.242 L -264.16,106.68 L -263.05,96.1181 L -259.768,86.0178 L -254.458,76.8205 L -247.352,68.9282
 L -238.76,62.6859 L -229.058,58.3663 L -218.67,56.1583 L -208.05,56.1583 L -197.662,58.3663 L -187.96,62.6859
 L -179.368,68.9282 L -172.262,76.8205 L -166.952,86.0178 L -163.67,96.1181 L -162.56,106.68 L -163.67,117.242
 L -166.952,127.342 L -172.262,136.539 L -179.368,144.432 L -187.96,150.674 L -197.662,154.994 L -208.05,157.202
 z
M -111.99,157.202 L -122.378,154.994 L -132.08,150.674 L -140.672,144.432 L -147.778,136.539 L -153.088,127.342
 L -156.37,117.242 L -157.48,106.68 L -156.37,96.1181 L -153.088,86.0178 L -147.778,76.8205 L -140.672,68.9282
 L -132.08,62.6859 L -122.378,58.3663 L -111.99,56.1583 L -101.37,56.1583 L -90.9819,58.3663 L -81.28,62.6859
 L -72.6882,68.9282 L -65.5819,76.8205 L -60.2719,86.0178 L -56.9901,96.1181 L -55.88,106.68 L -56.9901,117.242
 L -60.2719,127.342 L -65.5819,136.539 L -72.6882,144.432 L -81.28,150.674 L -90.9819,154.994 L -101.37,157.202
 z
M -5.31004,157.202 L -15.6981,154.994 L -25.4,150.674 L -33.9918,144.432 L -41.0981,136.539 L -46.4081,127.342
 L -49.6899,117.242 L -50.8,106.68 L -49.6899,96.1181 L -46.4081,86.0178 L -41.0981,76.8205 L -33.9918,68.9282
 L -25.4,62.6859 L -15.6981,58.3663 L -5.31004,56.1583 L 5.31004,56.1583 L 15.6981,58.3663 L 25.4,62.6859
 L 33.9918,68.9282 L 41.0981,76.8205 L 46.4081,86.0178 L 49.6899,96.1181 L 50.8,106.68 L 49.6899,117.242
 L 46.4081,127.342 L 41.0981,136.539 L 33.9918,144.432 L 25.4,150.674 L 15.6981,154.994 L 5.31004,157.202
 z
M 101.37,157.202 L 90.9819,154.994 L 81.28,150.674 L 72.6882,144.432 L 65.5819,136.539 L 60.2719,127.342
 L 56.9901,117.242 L 55.88,106.68 L 56.9901,96.1181 L 60.2719,86.0178 L 65.5819,76.8205 L 72.6882,68.9282
 L 81.28,62.6859 L 90.9819,58.3663 L 101.37,56.1583 L 111.99,56.1583 L 122.378,58.3663 L 132.08,62.6859
 L 140.672,68.9282 L 147.778,76.8205 L 153.088,86.0178 L 156.37,96.1181 L 157.48,106.68 L 156.37,117.242
 L 153.088,127.342 L 147.778,136.539 L 140.672,144.432 L 132.08,150.674 L 122.378,154.994 L 111.99,157.202
 z
M 208.05,157.202 L 197.662,154.994 L 187.96,150.674 L 179.368,144.432 L 172.262,136.539 L 166.952,127.342
 L 163.67,117.242 L 162.56,106.68 L 163.67,96.1181 L 166.952,86.0178 L 172.262,76.8205 L 179.368,68.9282
 L 187.96,62.6859 L 197.662,58.3663 L 208.05,56.1583 L 218.67,56.1583 L 229.058,58.3663 L 238.76,62.6859
 L 247.352,68.9282 L 254.458,76.8205 L 259.768,86.0178 L 263.05,96.1181 L 264.16,106.68 L 263.05,117.242
 L 259.768,127.342 L 254.458,136.539 L 247.352,144.432 L 238.76,150.674 L 229.058,154.994 L 218.67,157.202
 z
M -274.031,169.39 L -275.619,168.236 L -276.225,166.37 L -275.619,164.504 L -274.031,163.35 L -272.069,163.35
 L -270.481,164.504 L -269.875,166.37 L -270.481,168.236 L -272.069,169.39 z
" stroke="black" fill="lightgray" stroke-width="0.5"/>
</svg>
