  0
SECTION
  2
BLOCKS
  0
ENDSEC
  0
SECTION
  2
ENTITIES
  0
LINE
  8
0
 10
285.75
 20
179.07
 11
-285.75
 21
179.07
  0
LINE
  8
0
 10
-285.75
 20
179.07
 11
-285.75
 21
-179.07
  0
LINE
  8
0
 10
-285.75
 20
-179.07
 11
285.75
 21
-179.07
  0
LINE
  8
0
 10
285.75
 20
-179.07
 11
285.75
 21
179.07
  0
LINE
  8
0
 10
272.069
 20
163.35
 11
270.481
 21
164.504
  0
LINE
  8
0
 10
270.481
 20
164.504
 11
269.875
 21
166.37
  0
LINE
  8
0
 10
269.875
 20
166.37
 11
270.481
 21
168.236
  0
LINE
  8
0
 10
270.481
 20
168.236
 11
272.069
 21
169.39
  0
LINE
  8
0
 10
272.069
 20
169.39
 11
274.031
 21
169.39
  0
LINE
  8
0
 10
274.031
 20
169.39
 11
275.619
 21
168.236
  0
LINE
  8
0
 10
275.619
 20
168.236
 11
276.225
 21
166.37
  0
LINE
  8
0
 10
276.225
 20
166.37
 11
275.619
 21
164.504
  0
LINE
  8
0
 10
275.619
 20
164.504
 11
274.031
 21
163.35
  0
LINE
  8
0
 10
274.031
 20
163.35
 11
272.069
 21
163.35
  0
LINE
  8
0
 10
105.705
 20
133.766
 11
103.834
 21
134.316
  0
LINE
  8
0
 10
103.834
 20
134.316
 11
102.194
 21
135.37
  0
LINE
  8
0
 10
102.194
 20
135.37
 11
100.917
 21
136.843
  0
LINE
  8
0
 10
100.917
 20
136.843
 11
100.107
 21
138.617
  0
LINE
  8
0
 10
100.107
 20
138.617
 11
99.83
 21
140.547
  0
LINE
  8
0
 10
99.83
 20
140.547
 11
100.107
 21
142.477
  0
LINE
  8
0
 10
100.107
 20
142.477
 11
100.917
 21
144.25
  0
LINE
  8
0
 10
100.917
 20
144.25
 11
102.194
 21
145.724
  0
LINE
  8
0
 10
102.194
 20
145.724
 11
103.834
 21
146.778
  0
LINE
  8
0
 10
103.834
 20
146.778
 11
105.705
 21
147.327
  0
LINE
  8
0
 10
105.705
 20
147.327
 11
107.655
 21
147.327
  0
LINE
  8
0
 10
107.655
 20
147.327
 11
109.526
 21
146.778
  0
LINE
  8
0
 10
109.526
 20
146.778
 11
111.166
 21
145.724
  0
LINE
  8
0
 10
111.166
 20
145.724
 11
112.443
 21
144.25
  0
LINE
  8
0
 10
112.443
 20
144.25
 11
113.253
 21
142.477
  0
LINE
  8
0
 10
113.253
 20
142.477
 11
113.53
 21
140.547
  0
LINE
  8
0
 10
113.53
 20
140.547
 11
113.253
 21
138.617
  0
LINE
  8
0
 10
113.253
 20
138.617
 11
112.443
 21
136.843
  0
LINE
  8
0
 10
112.443
 20
136.843
 11
111.166
 21
135.37
  0
LINE
  8
0
 10
111.166
 20
135.37
 11
109.526
 21
134.316
  0
LINE
  8
0
 10
109.526
 20
134.316
 11
107.655
 21
133.766
  0
LINE
  8
0
 10
107.655
 20
133.766
 11
105.705
 21
133.766
  0
LINE
  8
0
 10
-214.335
 20
133.766
 11
-216.206
 21
134.316
  0
LINE
  8
0
 10
-216.206
 20
134.316
 11
-217.846
 21
135.37
  0
LINE
  8
0
 10
-217.846
 20
135.37
 11
-219.123
 21
136.843
  0
LINE
  8
0
 10
-219.123
 20
136.843
 11
-219.933
 21
138.617
  0
LINE
  8
0
 10
-219.933
 20
138.617
 11
-220.21
 21
140.547
  0
LINE
  8
0
 10
-220.21
 20
140.547
 11
-219.933
 21
142.477
  0
LINE
  8
0
 10
-219.933
 20
142.477
 11
-219.123
 21
144.25
  0
LINE
  8
0
 10
-219.123
 20
144.25
 11
-217.846
 21
145.724
  0
LINE
  8
0
 10
-217.846
 20
145.724
 11
-216.206
 21
146.778
  0
LINE
  8
0
 10
-216.206
 20
146.778
 11
-214.335
 21
147.327
  0
LINE
  8
0
 10
-214.335
 20
147.327
 11
-212.385
 21
147.327
  0
LINE
  8
0
 10
-212.385
 20
147.327
 11
-210.514
 21
146.778
  0
LINE
  8
0
 10
-210.514
 20
146.778
 11
-208.874
 21
145.724
  0
LINE
  8
0
 10
-208.874
 20
145.724
 11
-207.597
 21
144.25
  0
LINE
  8
0
 10
-207.597
 20
144.25
 11
-206.787
 21
142.477
  0
LINE
  8
0
 10
-206.787
 20
142.477
 11
-206.51
 21
140.547
  0
LINE
  8
0
 10
-206.51
 20
140.547
 11
-206.787
 21
138.617
  0
LINE
  8
0
 10
-206.787
 20
138.617
 11
-207.597
 21
136.843
  0
LINE
  8
0
 10
-207.597
 20
136.843
 11
-208.874
 21
135.37
  0
LINE
  8
0
 10
-208.874
 20
135.37
 11
-210.514
 21
134.316
  0
LINE
  8
0
 10
-210.514
 20
134.316
 11
-212.385
 21
133.766
  0
LINE
  8
0
 10
-212.385
 20
133.766
 11
-214.335
 21
133.766
  0
LINE
  8
0
 10
-0.974854
 20
133.766
 11
-2.84558
 21
134.316
  0
LINE
  8
0
 10
-2.84558
 20
134.316
 11
-4.48579
 21
135.37
  0
LINE
  8
0
 10
-4.48579
 20
135.37
 11
-5.76257
 21
136.843
  0
LINE
  8
0
 10
-5.76257
 20
136.843
 11
-6.57253
 21
138.617
  0
LINE
  8
0
 10
-6.57253
 20
138.617
 11
-6.84999
 21
140.547
  0
LINE
  8
0
 10
-6.84999
 20
140.547
 11
-6.57253
 21
142.477
  0
LINE
  8
0
 10
-6.57253
 20
142.477
 11
-5.76257
 21
144.25
  0
LINE
  8
0
 10
-5.76257
 20
144.25
 11
-4.48579
 21
145.724
  0
LINE
  8
0
 10
-4.48579
 20
145.724
 11
-2.84558
 21
146.778
  0
LINE
  8
0
 10
-2.84558
 20
146.778
 11
-0.974854
 21
147.327
  0
LINE
  8
0
 10
-0.974854
 20
147.327
 11
0.974854
 21
147.327
  0
LINE
  8
0
 10
0.974854
 20
147.327
 11
2.84558
 21
146.778
  0
LINE
  8
0
 10
2.84558
 20
146.778
 11
4.48579
 21
145.724
  0
LINE
  8
0
 10
4.48579
 20
145.724
 11
5.76257
 21
144.25
  0
LINE
  8
0
 10
5.76257
 20
144.25
 11
6.57253
 21
142.477
  0
LINE
  8
0
 10
6.57253
 20
142.477
 11
6.84999
 21
140.547
  0
LINE
  8
0
 10
6.84999
 20
140.547
 11
6.57253
 21
138.617
  0
LINE
  8
0
 10
6.57253
 20
138.617
 11
5.76257
 21
136.843
  0
LINE
  8
0
 10
5.76257
 20
136.843
 11
4.48579
 21
135.37
  0
LINE
  8
0
 10
4.48579
 20
135.37
 11
2.84558
 21
134.316
  0
LINE
  8
0
 10
2.84558
 20
134.316
 11
0.974854
 21
133.766
  0
LINE
  8
0
 10
0.974854
 20
133.766
 11
-0.974854
 21
133.766
  0
LINE
  8
0
 10
212.385
 20
133.766
 11
210.514
 21
134.316
  0
LINE
  8
0
 10
210.514
 20
134.316
 11
208.874
 21
135.37
  0
LINE
  8
0
 10
208.874
 20
135.37
 11
207.597
 21
136.843
  0
LINE
  8
0
 10
207.597
 20
136.843
 11
206.787
 21
138.617
  0
LINE
  8
0
 10
206.787
 20
138.617
 11
206.51
 21
140.547
  0
LINE
  8
0
 10
206.51
 20
140.547
 11
206.787
 21
142.477
  0
LINE
  8
0
 10
206.787
 20
142.477
 11
207.597
 21
144.25
  0
LINE
  8
0
 10
207.597
 20
144.25
 11
208.874
 21
145.724
  0
LINE
  8
0
 10
208.874
 20
145.724
 11
210.514
 21
146.778
  0
LINE
  8
0
 10
210.514
 20
146.778
 11
212.385
 21
147.327
  0
LINE
  8
0
 10
212.385
 20
147.327
 11
214.335
 21
147.327
  0
LINE
  8
0
 10
214.335
 20
147.327
 11
216.206
 21
146.778
  0
LINE
  8
0
 10
216.206
 20
146.778
 11
217.846
 21
145.724
  0
LINE
  8
0
 10
217.846
 20
145.724
 11
219.123
 21
144.25
  0
LINE
  8
0
 10
219.123
 20
144.25
 11
219.933
 21
142.477
  0
LINE
  8
0
 10
219.933
 20
142.477
 11
220.21
 21
140.547
  0
LINE
  8
0
 10
220.21
 20
140.547
 11
219.933
 21
138.617
  0
LINE
  8
0
 10
219.933
 20
138.617
 11
219.123
 21
136.843
  0
LINE
  8
0
 10
219.123
 20
136.843
 11
217.846
 21
135.37
  0
LINE
  8
0
 10
217.846
 20
135.37
 11
216.206
 21
134.316
  0
LINE
  8
0
 10
216.206
 20
134.316
 11
214.335
 21
133.766
  0
LINE
  8
0
 10
214.335
 20
133.766
 11
212.385
 21
133.766
  0
LINE
  8
0
 10
-107.655
 20
133.766
 11
-109.526
 21
134.316
  0
LINE
  8
0
 10
-109.526
 20
134.316
 11
-111.166
 21
135.37
  0
LINE
  8
0
 10
-111.166
 20
135.37
 11
-112.443
 21
136.843
  0
LINE
  8
0
 10
-112.443
 20
136.843
 11
-113.253
 21
138.617
  0
LINE
  8
0
 10
-113.253
 20
138.617
 11
-113.53
 21
140.547
  0
LINE
  8
0
 10
-113.53
 20
140.547
 11
-113.253
 21
142.477
  0
LINE
  8
0
 10
-113.253
 20
142.477
 11
-112.443
 21
144.25
  0
LINE
  8
0
 10
-112.443
 20
144.25
 11
-111.166
 21
145.724
  0
LINE
  8
0
 10
-111.166
 20
145.724
 11
-109.526
 21
146.778
  0
LINE
  8
0
 10
-109.526
 20
146.778
 11
-107.655
 21
147.327
  0
LINE
  8
0
 10
-107.655
 20
147.327
 11
-105.705
 21
147.327
  0
LINE
  8
0
 10
-105.705
 20
147.327
 11
-103.834
 21
146.778
  0
LINE
  8
0
 10
-103.834
 20
146.778
 11
-102.194
 21
145.724
  0
LINE
  8
0
 10
-102.194
 20
145.724
 11
-100.917
 21
144.25
  0
LINE
  8
0
 10
-100.917
 20
144.25
 11
-100.107
 21
142.477
  0
LINE
  8
0
 10
-100.107
 20
142.477
 11
-99.83
 21
140.547
  0
LINE
  8
0
 10
-99.83
 20
140.547
 11
-100.107
 21
138.617
  0
LINE
  8
0
 10
-100.107
 20
138.617
 11
-100.917
 21
136.843
  0
LINE
  8
0
 10
-100.917
 20
136.843
 11
-102.194
 21
135.37
  0
LINE
  8
0
 10
-102.194
 20
135.37
 11
-103.834
 21
134.316
  0
LINE
  8
0
 10
-103.834
 20
134.316
 11
-105.705
 21
133.766
  0
LINE
  8
0
 10
-105.705
 20
133.766
 11
-107.655
 21
133.766
  0
LINE
  8
0
 10
-78.3255
 20
82.9664
 11
-80.1962
 21
83.5157
  0
LINE
  8
0
 10
-80.1962
 20
83.5157
 11
-81.8364
 21
84.5698
  0
LINE
  8
0
 10
-81.8364
 20
84.5698
 11
-83.1132
 21
86.0433
  0
LINE
  8
0
 10
-83.1132
 20
86.0433
 11
-83.9231
 21
87.8168
  0
LINE
  8
0
 10
-83.9231
 20
87.8168
 11
-84.2006
 21
89.7467
  0
LINE
  8
0
 10
-84.2006
 20
89.7467
 11
-83.9231
 21
91.6765
  0
LINE
  8
0
 10
-83.9231
 20
91.6765
 11
-83.1132
 21
93.4501
  0
LINE
  8
0
 10
-83.1132
 20
93.4501
 11
-81.8364
 21
94.9236
  0
LINE
  8
0
 10
-81.8364
 20
94.9236
 11
-80.1962
 21
95.9776
  0
LINE
  8
0
 10
-80.1962
 20
95.9776
 11
-78.3255
 21
96.5269
  0
LINE
  8
0
 10
-78.3255
 20
96.5269
 11
-76.3757
 21
96.5269
  0
LINE
  8
0
 10
-76.3757
 20
96.5269
 11
-74.505
 21
95.9776
  0
LINE
  8
0
 10
-74.505
 20
95.9776
 11
-72.8648
 21
94.9236
  0
LINE
  8
0
 10
-72.8648
 20
94.9236
 11
-71.588
 21
93.4501
  0
LINE
  8
0
 10
-71.588
 20
93.4501
 11
-70.7781
 21
91.6765
  0
LINE
  8
0
 10
-70.7781
 20
91.6765
 11
-70.5006
 21
89.7467
  0
LINE
  8
0
 10
-70.5006
 20
89.7467
 11
-70.7781
 21
87.8168
  0
LINE
  8
0
 10
-70.7781
 20
87.8168
 11
-71.588
 21
86.0433
  0
LINE
  8
0
 10
-71.588
 20
86.0433
 11
-72.8648
 21
84.5698
  0
LINE
  8
0
 10
-72.8648
 20
84.5698
 11
-74.505
 21
83.5157
  0
LINE
  8
0
 10
-74.505
 20
83.5157
 11
-76.3757
 21
82.9664
  0
LINE
  8
0
 10
-76.3757
 20
82.9664
 11
-78.3255
 21
82.9664
  0
LINE
  8
0
 10
-243.664
 20
82.9664
 11
-245.535
 21
83.5157
  0
LINE
  8
0
 10
-245.535
 20
83.5157
 11
-247.175
 21
84.5698
  0
LINE
  8
0
 10
-247.175
 20
84.5698
 11
-248.452
 21
86.0433
  0
LINE
  8
0
 10
-248.452
 20
86.0433
 11
-249.262
 21
87.8168
  0
LINE
  8
0
 10
-249.262
 20
87.8168
 11
-249.539
 21
89.7467
  0
LINE
  8
0
 10
-249.539
 20
89.7467
 11
-249.262
 21
91.6765
  0
LINE
  8
0
 10
-249.262
 20
91.6765
 11
-248.452
 21
93.4501
  0
LINE
  8
0
 10
-248.452
 20
93.4501
 11
-247.175
 21
94.9236
  0
LINE
  8
0
 10
-247.175
 20
94.9236
 11
-245.535
 21
95.9776
  0
LINE
  8
0
 10
-245.535
 20
95.9776
 11
-243.664
 21
96.5269
  0
LINE
  8
0
 10
-243.664
 20
96.5269
 11
-241.715
 21
96.5269
  0
LINE
  8
0
 10
-241.715
 20
96.5269
 11
-239.844
 21
95.9776
  0
LINE
  8
0
 10
-239.844
 20
95.9776
 11
-238.204
 21
94.9236
  0
LINE
  8
0
 10
-238.204
 20
94.9236
 11
-236.927
 21
93.4501
  0
LINE
  8
0
 10
-236.927
 20
93.4501
 11
-236.117
 21
91.6765
  0
LINE
  8
0
 10
-236.117
 20
91.6765
 11
-235.839
 21
89.7467
  0
LINE
  8
0
 10
-235.839
 20
89.7467
 11
-236.117
 21
87.8168
  0
LINE
  8
0
 10
-236.117
 20
87.8168
 11
-236.927
 21
86.0433
  0
LINE
  8
0
 10
-236.927
 20
86.0433
 11
-238.204
 21
84.5698
  0
LINE
  8
0
 10
-238.204
 20
84.5698
 11
-239.844
 21
83.5157
  0
LINE
  8
0
 10
-239.844
 20
83.5157
 11
-241.715
 21
82.9664
  0
LINE
  8
0
 10
-241.715
 20
82.9664
 11
-243.664
 21
82.9664
  0
LINE
  8
0
 10
183.056
 20
82.9664
 11
181.185
 21
83.5157
  0
LINE
  8
0
 10
181.185
 20
83.5157
 11
179.545
 21
84.5698
  0
LINE
  8
0
 10
179.545
 20
84.5698
 11
178.268
 21
86.0433
  0
LINE
  8
0
 10
178.268
 20
86.0433
 11
177.458
 21
87.8168
  0
LINE
  8
0
 10
177.458
 20
87.8168
 11
177.181
 21
89.7467
  0
LINE
  8
0
 10
177.181
 20
89.7467
 11
177.458
 21
91.6765
  0
LINE
  8
0
 10
177.458
 20
91.6765
 11
178.268
 21
93.4501
  0
LINE
  8
0
 10
178.268
 20
93.4501
 11
179.545
 21
94.9236
  0
LINE
  8
0
 10
179.545
 20
94.9236
 11
181.185
 21
95.9776
  0
LINE
  8
0
 10
181.185
 20
95.9776
 11
183.056
 21
96.5269
  0
LINE
  8
0
 10
183.056
 20
96.5269
 11
185.005
 21
96.5269
  0
LINE
  8
0
 10
185.005
 20
96.5269
 11
186.876
 21
95.9776
  0
LINE
  8
0
 10
186.876
 20
95.9776
 11
188.516
 21
94.9236
  0
LINE
  8
0
 10
188.516
 20
94.9236
 11
189.793
 21
93.4501
  0
LINE
  8
0
 10
189.793
 20
93.4501
 11
190.603
 21
91.6765
  0
LINE
  8
0
 10
190.603
 20
91.6765
 11
190.881
 21
89.7467
  0
LINE
  8
0
 10
190.881
 20
89.7467
 11
190.603
 21
87.8168
  0
LINE
  8
0
 10
190.603
 20
87.8168
 11
189.793
 21
86.0433
  0
LINE
  8
0
 10
189.793
 20
86.0433
 11
188.516
 21
84.5698
  0
LINE
  8
0
 10
188.516
 20
84.5698
 11
186.876
 21
83.5157
  0
LINE
  8
0
 10
186.876
 20
83.5157
 11
185.005
 21
82.9664
  0
LINE
  8
0
 10
185.005
 20
82.9664
 11
183.056
 21
82.9664
  0
LINE
  8
0
 10
241.715
 20
82.9664
 11
239.844
 21
83.5157
  0
LINE
  8
0
 10
239.844
 20
83.5157
 11
238.204
 21
84.5698
  0
LINE
  8
0
 10
238.204
 20
84.5698
 11
236.927
 21
86.0433
  0
LINE
  8
0
 10
236.927
 20
86.0433
 11
236.117
 21
87.8168
  0
LINE
  8
0
 10
236.117
 20
87.8168
 11
235.839
 21
89.7467
  0
LINE
  8
0
 10
235.839
 20
89.7467
 11
236.117
 21
91.6765
  0
LINE
  8
0
 10
236.117
 20
91.6765
 11
236.927
 21
93.4501
  0
LINE
  8
0
 10
236.927
 20
93.4501
 11
238.204
 21
94.9236
  0
LINE
  8
0
 10
238.204
 20
94.9236
 11
239.844
 21
95.9776
  0
LINE
  8
0
 10
239.844
 20
95.9776
 11
241.715
 21
96.5269
  0
LINE
  8
0
 10
241.715
 20
96.5269
 11
243.664
 21
96.5269
  0
LINE
  8
0
 10
243.664
 20
96.5269
 11
245.535
 21
95.9776
  0
LINE
  8
0
 10
245.535
 20
95.9776
 11
247.175
 21
94.9236
  0
LINE
  8
0
 10
247.175
 20
94.9236
 11
248.452
 21
93.4501
  0
LINE
  8
0
 10
248.452
 20
93.4501
 11
249.262
 21
91.6765
  0
LINE
  8
0
 10
249.262
 20
91.6765
 11
249.539
 21
89.7467
  0
LINE
  8
0
 10
249.539
 20
89.7467
 11
249.262
 21
87.8168
  0
LINE
  8
0
 10
249.262
 20
87.8168
 11
248.452
 21
86.0433
  0
LINE
  8
0
 10
248.452
 20
86.0433
 11
247.175
 21
84.5698
  0
LINE
  8
0
 10
247.175
 20
84.5698
 11
245.535
 21
83.5157
  0
LINE
  8
0
 10
245.535
 20
83.5157
 11
243.664
 21
82.9664
  0
LINE
  8
0
 10
243.664
 20
82.9664
 11
241.715
 21
82.9664
  0
LINE
  8
0
 10
-136.984
 20
82.9664
 11
-138.855
 21
83.5157
  0
LINE
  8
0
 10
-138.855
 20
83.5157
 11
-140.495
 21
84.5698
  0
LINE
  8
0
 10
-140.495
 20
84.5698
 11
-141.772
 21
86.0433
  0
LINE
  8
0
 10
-141.772
 20
86.0433
 11
-142.582
 21
87.8168
  0
LINE
  8
0
 10
-142.582
 20
87.8168
 11
-142.859
 21
89.7467
  0
LINE
  8
0
 10
-142.859
 20
89.7467
 11
-142.582
 21
91.6765
  0
LINE
  8
0
 10
-142.582
 20
91.6765
 11
-141.772
 21
93.4501
  0
LINE
  8
0
 10
-141.772
 20
93.4501
 11
-140.495
 21
94.9236
  0
LINE
  8
0
 10
-140.495
 20
94.9236
 11
-138.855
 21
95.9776
  0
LINE
  8
0
 10
-138.855
 20
95.9776
 11
-136.984
 21
96.5269
  0
LINE
  8
0
 10
-136.984
 20
96.5269
 11
-135.035
 21
96.5269
  0
LINE
  8
0
 10
-135.035
 20
96.5269
 11
-133.164
 21
95.9776
  0
LINE
  8
0
 10
-133.164
 20
95.9776
 11
-131.524
 21
94.9236
  0
LINE
  8
0
 10
-131.524
 20
94.9236
 11
-130.247
 21
93.4501
  0
LINE
  8
0
 10
-130.247
 20
93.4501
 11
-129.437
 21
91.6765
  0
LINE
  8
0
 10
-129.437
 20
91.6765
 11
-129.159
 21
89.7467
  0
LINE
  8
0
 10
-129.159
 20
89.7467
 11
-129.437
 21
87.8168
  0
LINE
  8
0
 10
-129.437
 20
87.8168
 11
-130.247
 21
86.0433
  0
LINE
  8
0
 10
-130.247
 20
86.0433
 11
-131.524
 21
84.5698
  0
LINE
  8
0
 10
-131.524
 20
84.5698
 11
-133.164
 21
83.5157
  0
LINE
  8
0
 10
-133.164
 20
83.5157
 11
-135.035
 21
82.9664
  0
LINE
  8
0
 10
-135.035
 20
82.9664
 11
-136.984
 21
82.9664
  0
LINE
  8
0
 10
76.3757
 20
82.9664
 11
74.505
 21
83.5157
  0
LINE
  8
0
 10
74.505
 20
83.5157
 11
72.8648
 21
84.5698
  0
LINE
  8
0
 10
72.8648
 20
84.5698
 11
71.588
 21
86.0433
  0
LINE
  8
0
 10
71.588
 20
86.0433
 11
70.7781
 21
87.8168
  0
LINE
  8
0
 10
70.7781
 20
87.8168
 11
70.5006
 21
89.7467
  0
LINE
  8
0
 10
70.5006
 20
89.7467
 11
70.7781
 21
91.6765
  0
LINE
  8
0
 10
70.7781
 20
91.6765
 11
71.588
 21
93.4501
  0
LINE
  8
0
 10
71.588
 20
93.4501
 11
72.8648
 21
94.9236
  0
LINE
  8
0
 10
72.8648
 20
94.9236
 11
74.505
 21
95.9776
  0
LINE
  8
0
 10
74.505
 20
95.9776
 11
76.3757
 21
96.5269
  0
LINE
  8
0
 10
76.3757
 20
96.5269
 11
78.3255
 21
96.5269
  0
LINE
  8
0
 10
78.3255
 20
96.5269
 11
80.1962
 21
95.9776
  0
LINE
  8
0
 10
80.1962
 20
95.9776
 11
81.8364
 21
94.9236
  0
LINE
  8
0
 10
81.8364
 20
94.9236
 11
83.1132
 21
93.4501
  0
LINE
  8
0
 10
83.1132
 20
93.4501
 11
83.9231
 21
91.6765
  0
LINE
  8
0
 10
83.9231
 20
91.6765
 11
84.2006
 21
89.7467
  0
LINE
  8
0
 10
84.2006
 20
89.7467
 11
83.9231
 21
87.8168
  0
LINE
  8
0
 10
83.9231
 20
87.8168
 11
83.1132
 21
86.0433
  0
LINE
  8
0
 10
83.1132
 20
86.0433
 11
81.8364
 21
84.5698
  0
LINE
  8
0
 10
81.8364
 20
84.5698
 11
80.1962
 21
83.5157
  0
LINE
  8
0
 10
80.1962
 20
83.5157
 11
78.3255
 21
82.9664
  0
LINE
  8
0
 10
78.3255
 20
82.9664
 11
76.3757
 21
82.9664
  0
LINE
  8
0
 10
28.3545
 20
82.9664
 11
26.4838
 21
83.5157
  0
LINE
  8
0
 10
26.4838
 20
83.5157
 11
24.8436
 21
84.5698
  0
LINE
  8
0
 10
24.8436
 20
84.5698
 11
23.5668
 21
86.0433
  0
LINE
  8
0
 10
23.5668
 20
86.0433
 11
22.7569
 21
87.8168
  0
LINE
  8
0
 10
22.7569
 20
87.8168
 11
22.4794
 21
89.7467
  0
LINE
  8
0
 10
22.4794
 20
89.7467
 11
22.7569
 21
91.6765
  0
LINE
  8
0
 10
22.7569
 20
91.6765
 11
23.5668
 21
93.4501
  0
LINE
  8
0
 10
23.5668
 20
93.4501
 11
24.8436
 21
94.9236
  0
LINE
  8
0
 10
24.8436
 20
94.9236
 11
26.4838
 21
95.9776
  0
LINE
  8
0
 10
26.4838
 20
95.9776
 11
28.3545
 21
96.5269
  0
LINE
  8
0
 10
28.3545
 20
96.5269
 11
30.3042
 21
96.5269
  0
LINE
  8
0
 10
30.3042
 20
96.5269
 11
32.175
 21
95.9776
  0
LINE
  8
0
 10
32.175
 20
95.9776
 11
33.8152
 21
94.9236
  0
LINE
  8
0
 10
33.8152
 20
94.9236
 11
35.092
 21
93.4501
  0
LINE
  8
0
 10
35.092
 20
93.4501
 11
35.9019
 21
91.6765
  0
LINE
  8
0
 10
35.9019
 20
91.6765
 11
36.1794
 21
89.7467
  0
LINE
  8
0
 10
36.1794
 20
89.7467
 11
35.9019
 21
87.8168
  0
LINE
  8
0
 10
35.9019
 20
87.8168
 11
35.092
 21
86.0433
  0
LINE
  8
0
 10
35.092
 20
86.0433
 11
33.8152
 21
84.5698
  0
LINE
  8
0
 10
33.8152
 20
84.5698
 11
32.175
 21
83.5157
  0
LINE
  8
0
 10
32.175
 20
83.5157
 11
30.3042
 21
82.9664
  0
LINE
  8
0
 10
30.3042
 20
82.9664
 11
28.3545
 21
82.9664
  0
LINE
  8
0
 10
-30.3042
 20
82.9664
 11
-32.175
 21
83.5157
  0
LINE
  8
0
 10
-32.175
 20
83.5157
 11
-33.8152
 21
84.5698
  0
LINE
  8
0
 10
-33.8152
 20
84.5698
 11
-35.092
 21
86.0433
  0
LINE
  8
0
 10
-35.092
 20
86.0433
 11
-35.9019
 21
87.8168
  0
LINE
  8
0
 10
-35.9019
 20
87.8168
 11
-36.1794
 21
89.7467
  0
LINE
  8
0
 10
-36.1794
 20
89.7467
 11
-35.9019
 21
91.6765
  0
LINE
  8
0
 10
-35.9019
 20
91.6765
 11
-35.092
 21
93.4501
  0
LINE
  8
0
 10
-35.092
 20
93.4501
 11
-33.8152
 21
94.9236
  0
LINE
  8
0
 10
-33.8152
 20
94.9236
 11
-32.175
 21
95.9776
  0
LINE
  8
0
 10
-32.175
 20
95.9776
 11
-30.3042
 21
96.5269
  0
LINE
  8
0
 10
-30.3042
 20
96.5269
 11
-28.3545
 21
96.5269
  0
LINE
  8
0
 10
-28.3545
 20
96.5269
 11
-26.4838
 21
95.9776
  0
LINE
  8
0
 10
-26.4838
 20
95.9776
 11
-24.8436
 21
94.9236
  0
LINE
  8
0
 10
-24.8436
 20
94.9236
 11
-23.5668
 21
93.4501
  0
LINE
  8
0
 10
-23.5668
 20
93.4501
 11
-22.7569
 21
91.6765
  0
LINE
  8
0
 10
-22.7569
 20
91.6765
 11
-22.4794
 21
89.7467
  0
LINE
  8
0
 10
-22.4794
 20
89.7467
 11
-22.7569
 21
87.8168
  0
LINE
  8
0
 10
-22.7569
 20
87.8168
 11
-23.5668
 21
86.0433
  0
LINE
  8
0
 10
-23.5668
 20
86.0433
 11
-24.8436
 21
84.5698
  0
LINE
  8
0
 10
-24.8436
 20
84.5698
 11
-26.4838
 21
83.5157
  0
LINE
  8
0
 10
-26.4838
 20
83.5157
 11
-28.3545
 21
82.9664
  0
LINE
  8
0
 10
-28.3545
 20
82.9664
 11
-30.3042
 21
82.9664
  0
LINE
  8
0
 10
135.035
 20
82.9664
 11
133.164
 21
83.5157
  0
LINE
  8
0
 10
133.164
 20
83.5157
 11
131.524
 21
84.5698
  0
LINE
  8
0
 10
131.524
 20
84.5698
 11
130.247
 21
86.0433
  0
LINE
  8
0
 10
130.247
 20
86.0433
 11
129.437
 21
87.8168
  0
LINE
  8
0
 10
129.437
 20
87.8168
 11
129.159
 21
89.7467
  0
LINE
  8
0
 10
129.159
 20
89.7467
 11
129.437
 21
91.6765
  0
LINE
  8
0
 10
129.437
 20
91.6765
 11
130.247
 21
93.4501
  0
LINE
  8
0
 10
130.247
 20
93.4501
 11
131.524
 21
94.9236
  0
LINE
  8
0
 10
131.524
 20
94.9236
 11
133.164
 21
95.9776
  0
LINE
  8
0
 10
133.164
 20
95.9776
 11
135.035
 21
96.5269
  0
LINE
  8
0
 10
135.035
 20
96.5269
 11
136.984
 21
96.5269
  0
LINE
  8
0
 10
136.984
 20
96.5269
 11
138.855
 21
95.9776
  0
LINE
  8
0
 10
138.855
 20
95.9776
 11
140.495
 21
94.9236
  0
LINE
  8
0
 10
140.495
 20
94.9236
 11
141.772
 21
93.4501
  0
LINE
  8
0
 10
141.772
 20
93.4501
 11
142.582
 21
91.6765
  0
LINE
  8
0
 10
142.582
 20
91.6765
 11
142.859
 21
89.7467
  0
LINE
  8
0
 10
142.859
 20
89.7467
 11
142.582
 21
87.8168
  0
LINE
  8
0
 10
142.582
 20
87.8168
 11
141.772
 21
86.0433
  0
LINE
  8
0
 10
141.772
 20
86.0433
 11
140.495
 21
84.5698
  0
LINE
  8
0
 10
140.495
 20
84.5698
 11
138.855
 21
83.5157
  0
LINE
  8
0
 10
138.855
 20
83.5157
 11
136.984
 21
82.9664
  0
LINE
  8
0
 10
136.984
 20
82.9664
 11
135.035
 21
82.9664
  0
LINE
  8
0
 10
-185.005
 20
82.9664
 11
-186.876
 21
83.5157
  0
LINE
  8
0
 10
-186.876
 20
83.5157
 11
-188.516
 21
84.5698
  0
LINE
  8
0
 10
-188.516
 20
84.5698
 11
-189.793
 21
86.0433
  0
LINE
  8
0
 10
-189.793
 20
86.0433
 11
-190.603
 21
87.8168
  0
LINE
  8
0
 10
-190.603
 20
87.8168
 11
-190.881
 21
89.7467
  0
LINE
  8
0
 10
-190.881
 20
89.7467
 11
-190.603
 21
91.6765
  0
LINE
  8
0
 10
-190.603
 20
91.6765
 11
-189.793
 21
93.4501
  0
LINE
  8
0
 10
-189.793
 20
93.4501
 11
-188.516
 21
94.9236
  0
LINE
  8
0
 10
-188.516
 20
94.9236
 11
-186.876
 21
95.9776
  0
LINE
  8
0
 10
-186.876
 20
95.9776
 11
-185.005
 21
96.5269
  0
LINE
  8
0
 10
-185.005
 20
96.5269
 11
-183.056
 21
96.5269
  0
LINE
  8
0
 10
-183.056
 20
96.5269
 11
-181.185
 21
95.9776
  0
LINE
  8
0
 10
-181.185
 20
95.9776
 11
-179.545
 21
94.9236
  0
LINE
  8
0
 10
-179.545
 20
94.9236
 11
-178.268
 21
93.4501
  0
LINE
  8
0
 10
-178.268
 20
93.4501
 11
-177.458
 21
91.6765
  0
LINE
  8
0
 10
-177.458
 20
91.6765
 11
-177.181
 21
89.7467
  0
LINE
  8
0
 10
-177.181
 20
89.7467
 11
-177.458
 21
87.8168
  0
LINE
  8
0
 10
-177.458
 20
87.8168
 11
-178.268
 21
86.0433
  0
LINE
  8
0
 10
-178.268
 20
86.0433
 11
-179.545
 21
84.5698
  0
LINE
  8
0
 10
-179.545
 20
84.5698
 11
-181.185
 21
83.5157
  0
LINE
  8
0
 10
-181.185
 20
83.5157
 11
-183.056
 21
82.9664
  0
LINE
  8
0
 10
-183.056
 20
82.9664
 11
-185.005
 21
82.9664
  0
LINE
  8
0
 10
-107.655
 20
27.0864
 11
-109.526
 21
27.6357
  0
LINE
  8
0
 10
-109.526
 20
27.6357
 11
-111.166
 21
28.6898
  0
LINE
  8
0
 10
-111.166
 20
28.6898
 11
-112.443
 21
30.1633
  0
LINE
  8
0
 10
-112.443
 20
30.1633
 11
-113.253
 21
31.9368
  0
LINE
  8
0
 10
-113.253
 20
31.9368
 11
-113.53
 21
33.8667
  0
LINE
  8
0
 10
-113.53
 20
33.8667
 11
-113.253
 21
35.7965
  0
LINE
  8
0
 10
-113.253
 20
35.7965
 11
-112.443
 21
37.5701
  0
LINE
  8
0
 10
-112.443
 20
37.5701
 11
-111.166
 21
39.0435
  0
LINE
  8
0
 10
-111.166
 20
39.0435
 11
-109.526
 21
40.0976
  0
LINE
  8
0
 10
-109.526
 20
40.0976
 11
-107.655
 21
40.6469
  0
LINE
  8
0
 10
-107.655
 20
40.6469
 11
-105.705
 21
40.6469
  0
LINE
  8
0
 10
-105.705
 20
40.6469
 11
-103.834
 21
40.0976
  0
LINE
  8
0
 10
-103.834
 20
40.0976
 11
-102.194
 21
39.0435
  0
LINE
  8
0
 10
-102.194
 20
39.0435
 11
-100.917
 21
37.5701
  0
LINE
  8
0
 10
-100.917
 20
37.5701
 11
-100.107
 21
35.7965
  0
LINE
  8
0
 10
-100.107
 20
35.7965
 11
-99.83
 21
33.8667
  0
LINE
  8
0
 10
-99.83
 20
33.8667
 11
-100.107
 21
31.9368
  0
LINE
  8
0
 10
-100.107
 20
31.9368
 11
-100.917
 21
30.1633
  0
LINE
  8
0
 10
-100.917
 20
30.1633
 11
-102.194
 21
28.6898
  0
LINE
  8
0
 10
-102.194
 20
28.6898
 11
-103.834
 21
27.6357
  0
LINE
  8
0
 10
-103.834
 20
27.6357
 11
-105.705
 21
27.0864
  0
LINE
  8
0
 10
-105.705
 20
27.0864
 11
-107.655
 21
27.0864
  0
LINE
  8
0
 10
105.705
 20
27.0864
 11
103.834
 21
27.6357
  0
LINE
  8
0
 10
103.834
 20
27.6357
 11
102.194
 21
28.6898
  0
LINE
  8
0
 10
102.194
 20
28.6898
 11
100.917
 21
30.1633
  0
LINE
  8
0
 10
100.917
 20
30.1633
 11
100.107
 21
31.9368
  0
LINE
  8
0
 10
100.107
 20
31.9368
 11
99.83
 21
33.8667
  0
LINE
  8
0
 10
99.83
 20
33.8667
 11
100.107
 21
35.7965
  0
LINE
  8
0
 10
100.107
 20
35.7965
 11
100.917
 21
37.5701
  0
LINE
  8
0
 10
100.917
 20
37.5701
 11
102.194
 21
39.0435
  0
LINE
  8
0
 10
102.194
 20
39.0435
 11
103.834
 21
40.0976
  0
LINE
  8
0
 10
103.834
 20
40.0976
 11
105.705
 21
40.6469
  0
LINE
  8
0
 10
105.705
 20
40.6469
 11
107.655
 21
40.6469
  0
LINE
  8
0
 10
107.655
 20
40.6469
 11
109.526
 21
40.0976
  0
LINE
  8
0
 10
109.526
 20
40.0976
 11
111.166
 21
39.0435
  0
LINE
  8
0
 10
111.166
 20
39.0435
 11
112.443
 21
37.5701
  0
LINE
  8
0
 10
112.443
 20
37.5701
 11
113.253
 21
35.7965
  0
LINE
  8
0
 10
113.253
 20
35.7965
 11
113.53
 21
33.8667
  0
LINE
  8
0
 10
113.53
 20
33.8667
 11
113.253
 21
31.9368
  0
LINE
  8
0
 10
113.253
 20
31.9368
 11
112.443
 21
30.1633
  0
LINE
  8
0
 10
112.443
 20
30.1633
 11
111.166
 21
28.6898
  0
LINE
  8
0
 10
111.166
 20
28.6898
 11
109.526
 21
27.6357
  0
LINE
  8
0
 10
109.526
 20
27.6357
 11
107.655
 21
27.0864
  0
LINE
  8
0
 10
107.655
 20
27.0864
 11
105.705
 21
27.0864
  0
LINE
  8
0
 10
212.385
 20
27.0864
 11
210.514
 21
27.6357
  0
LINE
  8
0
 10
210.514
 20
27.6357
 11
208.874
 21
28.6898
  0
LINE
  8
0
 10
208.874
 20
28.6898
 11
207.597
 21
30.1633
  0
LINE
  8
0
 10
207.597
 20
30.1633
 11
206.787
 21
31.9368
  0
LINE
  8
0
 10
206.787
 20
31.9368
 11
206.51
 21
33.8667
  0
LINE
  8
0
 10
206.51
 20
33.8667
 11
206.787
 21
35.7965
  0
LINE
  8
0
 10
206.787
 20
35.7965
 11
207.597
 21
37.5701
  0
LINE
  8
0
 10
207.597
 20
37.5701
 11
208.874
 21
39.0435
  0
LINE
  8
0
 10
208.874
 20
39.0435
 11
210.514
 21
40.0976
  0
LINE
  8
0
 10
210.514
 20
40.0976
 11
212.385
 21
40.6469
  0
LINE
  8
0
 10
212.385
 20
40.6469
 11
214.335
 21
40.6469
  0
LINE
  8
0
 10
214.335
 20
40.6469
 11
216.206
 21
40.0976
  0
LINE
  8
0
 10
216.206
 20
40.0976
 11
217.846
 21
39.0435
  0
LINE
  8
0
 10
217.846
 20
39.0435
 11
219.123
 21
37.5701
  0
LINE
  8
0
 10
219.123
 20
37.5701
 11
219.933
 21
35.7965
  0
LINE
  8
0
 10
219.933
 20
35.7965
 11
220.21
 21
33.8667
  0
LINE
  8
0
 10
220.21
 20
33.8667
 11
219.933
 21
31.9368
  0
LINE
  8
0
 10
219.933
 20
31.9368
 11
219.123
 21
30.1633
  0
LINE
  8
0
 10
219.123
 20
30.1633
 11
217.846
 21
28.6898
  0
LINE
  8
0
 10
217.846
 20
28.6898
 11
216.206
 21
27.6357
  0
LINE
  8
0
 10
216.206
 20
27.6357
 11
214.335
 21
27.0864
  0
LINE
  8
0
 10
214.335
 20
27.0864
 11
212.385
 21
27.0864
  0
LINE
  8
0
 10
-0.974854
 20
27.0864
 11
-2.84558
 21
27.6357
  0
LINE
  8
0
 10
-2.84558
 20
27.6357
 11
-4.48579
 21
28.6898
  0
LINE
  8
0
 10
-4.48579
 20
28.6898
 11
-5.76257
 21
30.1633
  0
LINE
  8
0
 10
-5.76257
 20
30.1633
 11
-6.57253
 21
31.9368
  0
LINE
  8
0
 10
-6.57253
 20
31.9368
 11
-6.84999
 21
33.8667
  0
LINE
  8
0
 10
-6.84999
 20
33.8667
 11
-6.57253
 21
35.7965
  0
LINE
  8
0
 10
-6.57253
 20
35.7965
 11
-5.76257
 21
37.5701
  0
LINE
  8
0
 10
-5.76257
 20
37.5701
 11
-4.48579
 21
39.0435
  0
LINE
  8
0
 10
-4.48579
 20
39.0435
 11
-2.84558
 21
40.0976
  0
LINE
  8
0
 10
-2.84558
 20
40.0976
 11
-0.974854
 21
40.6469
  0
LINE
  8
0
 10
-0.974854
 20
40.6469
 11
0.974854
 21
40.6469
  0
LINE
  8
0
 10
0.974854
 20
40.6469
 11
2.84558
 21
40.0976
  0
LINE
  8
0
 10
2.84558
 20
40.0976
 11
4.48579
 21
39.0435
  0
LINE
  8
0
 10
4.48579
 20
39.0435
 11
5.76257
 21
37.5701
  0
LINE
  8
0
 10
5.76257
 20
37.5701
 11
6.57253
 21
35.7965
  0
LINE
  8
0
 10
6.57253
 20
35.7965
 11
6.84999
 21
33.8667
  0
LINE
  8
0
 10
6.84999
 20
33.8667
 11
6.57253
 21
31.9368
  0
LINE
  8
0
 10
6.57253
 20
31.9368
 11
5.76257
 21
30.1633
  0
LINE
  8
0
 10
5.76257
 20
30.1633
 11
4.48579
 21
28.6898
  0
LINE
  8
0
 10
4.48579
 20
28.6898
 11
2.84558
 21
27.6357
  0
LINE
  8
0
 10
2.84558
 20
27.6357
 11
0.974854
 21
27.0864
  0
LINE
  8
0
 10
0.974854
 20
27.0864
 11
-0.974854
 21
27.0864
  0
LINE
  8
0
 10
-214.335
 20
27.0864
 11
-216.206
 21
27.6357
  0
LINE
  8
0
 10
-216.206
 20
27.6357
 11
-217.846
 21
28.6898
  0
LINE
  8
0
 10
-217.846
 20
28.6898
 11
-219.123
 21
30.1633
  0
LINE
  8
0
 10
-219.123
 20
30.1633
 11
-219.933
 21
31.9368
  0
LINE
  8
0
 10
-219.933
 20
31.9368
 11
-220.21
 21
33.8667
  0
LINE
  8
0
 10
-220.21
 20
33.8667
 11
-219.933
 21
35.7965
  0
LINE
  8
0
 10
-219.933
 20
35.7965
 11
-219.123
 21
37.5701
  0
LINE
  8
0
 10
-219.123
 20
37.5701
 11
-217.846
 21
39.0435
  0
LINE
  8
0
 10
-217.846
 20
39.0435
 11
-216.206
 21
40.0976
  0
LINE
  8
0
 10
-216.206
 20
40.0976
 11
-214.335
 21
40.6469
  0
LINE
  8
0
 10
-214.335
 20
40.6469
 11
-212.385
 21
40.6469
  0
LINE
  8
0
 10
-212.385
 20
40.6469
 11
-210.514
 21
40.0976
  0
LINE
  8
0
 10
-210.514
 20
40.0976
 11
-208.874
 21
39.0435
  0
LINE
  8
0
 10
-208.874
 20
39.0435
 11
-207.597
 21
37.5701
  0
LINE
  8
0
 10
-207.597
 20
37.5701
 11
-206.787
 21
35.7965
  0
LINE
  8
0
 10
-206.787
 20
35.7965
 11
-206.51
 21
33.8667
  0
LINE
  8
0
 10
-206.51
 20
33.8667
 11
-206.787
 21
31.9368
  0
LINE
  8
0
 10
-206.787
 20
31.9368
 11
-207.597
 21
30.1633
  0
LINE
  8
0
 10
-207.597
 20
30.1633
 11
-208.874
 21
28.6898
  0
LINE
  8
0
 10
-208.874
 20
28.6898
 11
-210.514
 21
27.6357
  0
LINE
  8
0
 10
-210.514
 20
27.6357
 11
-212.385
 21
27.0864
  0
LINE
  8
0
 10
-212.385
 20
27.0864
 11
-214.335
 21
27.0864
  0
LINE
  8
0
 10
135.035
 20
-23.7136
 11
133.164
 21
-23.1643
  0
LINE
  8
0
 10
133.164
 20
-23.1643
 11
131.524
 21
-22.1102
  0
LINE
  8
0
 10
131.524
 20
-22.1102
 11
130.247
 21
-20.6367
  0
LINE
  8
0
 10
130.247
 20
-20.6367
 11
129.437
 21
-18.8632
  0
LINE
  8
0
 10
129.437
 20
-18.8632
 11
129.159
 21
-16.9333
  0
LINE
  8
0
 10
129.159
 20
-16.9333
 11
129.437
 21
-15.0035
  0
LINE
  8
0
 10
129.437
 20
-15.0035
 11
130.247
 21
-13.2299
  0
LINE
  8
0
 10
130.247
 20
-13.2299
 11
131.524
 21
-11.7564
  0
LINE
  8
0
 10
131.524
 20
-11.7564
 11
133.164
 21
-10.7023
  0
LINE
  8
0
 10
133.164
 20
-10.7023
 11
135.035
 21
-10.153
  0
LINE
  8
0
 10
135.035
 20
-10.153
 11
136.984
 21
-10.153
  0
LINE
  8
0
 10
136.984
 20
-10.153
 11
138.855
 21
-10.7023
  0
LINE
  8
0
 10
138.855
 20
-10.7023
 11
140.495
 21
-11.7564
  0
LINE
  8
0
 10
140.495
 20
-11.7564
 11
141.772
 21
-13.2299
  0
LINE
  8
0
 10
141.772
 20
-13.2299
 11
142.582
 21
-15.0035
  0
LINE
  8
0
 10
142.582
 20
-15.0035
 11
142.859
 21
-16.9333
  0
LINE
  8
0
 10
142.859
 20
-16.9333
 11
142.582
 21
-18.8632
  0
LINE
  8
0
 10
142.582
 20
-18.8632
 11
141.772
 21
-20.6367
  0
LINE
  8
0
 10
141.772
 20
-20.6367
 11
140.495
 21
-22.1102
  0
LINE
  8
0
 10
140.495
 20
-22.1102
 11
138.855
 21
-23.1643
  0
LINE
  8
0
 10
138.855
 20
-23.1643
 11
136.984
 21
-23.7136
  0
LINE
  8
0
 10
136.984
 20
-23.7136
 11
135.035
 21
-23.7136
  0
LINE
  8
0
 10
-243.664
 20
-23.7136
 11
-245.535
 21
-23.1643
  0
LINE
  8
0
 10
-245.535
 20
-23.1643
 11
-247.175
 21
-22.1102
  0
LINE
  8
0
 10
-247.175
 20
-22.1102
 11
-248.452
 21
-20.6367
  0
LINE
  8
0
 10
-248.452
 20
-20.6367
 11
-249.262
 21
-18.8632
  0
LINE
  8
0
 10
-249.262
 20
-18.8632
 11
-249.539
 21
-16.9333
  0
LINE
  8
0
 10
-249.539
 20
-16.9333
 11
-249.262
 21
-15.0035
  0
LINE
  8
0
 10
-249.262
 20
-15.0035
 11
-248.452
 21
-13.2299
  0
LINE
  8
0
 10
-248.452
 20
-13.2299
 11
-247.175
 21
-11.7564
  0
LINE
  8
0
 10
-247.175
 20
-11.7564
 11
-245.535
 21
-10.7023
  0
LINE
  8
0
 10
-245.535
 20
-10.7023
 11
-243.664
 21
-10.153
  0
LINE
  8
0
 10
-243.664
 20
-10.153
 11
-241.715
 21
-10.153
  0
LINE
  8
0
 10
-241.715
 20
-10.153
 11
-239.844
 21
-10.7023
  0
LINE
  8
0
 10
-239.844
 20
-10.7023
 11
-238.204
 21
-11.7564
  0
LINE
  8
0
 10
-238.204
 20
-11.7564
 11
-236.927
 21
-13.2299
  0
LINE
  8
0
 10
-236.927
 20
-13.2299
 11
-236.117
 21
-15.0035
  0
LINE
  8
0
 10
-236.117
 20
-15.0035
 11
-235.839
 21
-16.9333
  0
LINE
  8
0
 10
-235.839
 20
-16.9333
 11
-236.117
 21
-18.8632
  0
LINE
  8
0
 10
-236.117
 20
-18.8632
 11
-236.927
 21
-20.6367
  0
LINE
  8
0
 10
-236.927
 20
-20.6367
 11
-238.204
 21
-22.1102
  0
LINE
  8
0
 10
-238.204
 20
-22.1102
 11
-239.844
 21
-23.1643
  0
LINE
  8
0
 10
-239.844
 20
-23.1643
 11
-241.715
 21
-23.7136
  0
LINE
  8
0
 10
-241.715
 20
-23.7136
 11
-243.664
 21
-23.7136
  0
LINE
  8
0
 10
-78.3255
 20
-23.7136
 11
-80.1962
 21
-23.1643
  0
LINE
  8
0
 10
-80.1962
 20
-23.1643
 11
-81.8364
 21
-22.1102
  0
LINE
  8
0
 10
-81.8364
 20
-22.1102
 11
-83.1132
 21
-20.6367
  0
LINE
  8
0
 10
-83.1132
 20
-20.6367
 11
-83.9231
 21
-18.8632
  0
LINE
  8
0
 10
-83.9231
 20
-18.8632
 11
-84.2006
 21
-16.9333
  0
LINE
  8
0
 10
-84.2006
 20
-16.9333
 11
-83.9231
 21
-15.0035
  0
LINE
  8
0
 10
-83.9231
 20
-15.0035
 11
-83.1132
 21
-13.2299
  0
LINE
  8
0
 10
-83.1132
 20
-13.2299
 11
-81.8364
 21
-11.7564
  0
LINE
  8
0
 10
-81.8364
 20
-11.7564
 11
-80.1962
 21
-10.7023
  0
LINE
  8
0
 10
-80.1962
 20
-10.7023
 11
-78.3255
 21
-10.153
  0
LINE
  8
0
 10
-78.3255
 20
-10.153
 11
-76.3757
 21
-10.153
  0
LINE
  8
0
 10
-76.3757
 20
-10.153
 11
-74.505
 21
-10.7023
  0
LINE
  8
0
 10
-74.505
 20
-10.7023
 11
-72.8648
 21
-11.7564
  0
LINE
  8
0
 10
-72.8648
 20
-11.7564
 11
-71.588
 21
-13.2299
  0
LINE
  8
0
 10
-71.588
 20
-13.2299
 11
-70.7781
 21
-15.0035
  0
LINE
  8
0
 10
-70.7781
 20
-15.0035
 11
-70.5006
 21
-16.9333
  0
LINE
  8
0
 10
-70.5006
 20
-16.9333
 11
-70.7781
 21
-18.8632
  0
LINE
  8
0
 10
-70.7781
 20
-18.8632
 11
-71.588
 21
-20.6367
  0
LINE
  8
0
 10
-71.588
 20
-20.6367
 11
-72.8648
 21
-22.1102
  0
LINE
  8
0
 10
-72.8648
 20
-22.1102
 11
-74.505
 21
-23.1643
  0
LINE
  8
0
 10
-74.505
 20
-23.1643
 11
-76.3757
 21
-23.7136
  0
LINE
  8
0
 10
-76.3757
 20
-23.7136
 11
-78.3255
 21
-23.7136
  0
LINE
  8
0
 10
-185.005
 20
-23.7136
 11
-186.876
 21
-23.1643
  0
LINE
  8
0
 10
-186.876
 20
-23.1643
 11
-188.516
 21
-22.1102
  0
LINE
  8
0
 10
-188.516
 20
-22.1102
 11
-189.793
 21
-20.6367
  0
LINE
  8
0
 10
-189.793
 20
-20.6367
 11
-190.603
 21
-18.8632
  0
LINE
  8
0
 10
-190.603
 20
-18.8632
 11
-190.881
 21
-16.9333
  0
LINE
  8
0
 10
-190.881
 20
-16.9333
 11
-190.603
 21
-15.0035
  0
LINE
  8
0
 10
-190.603
 20
-15.0035
 11
-189.793
 21
-13.2299
  0
LINE
  8
0
 10
-189.793
 20
-13.2299
 11
-188.516
 21
-11.7564
  0
LINE
  8
0
 10
-188.516
 20
-11.7564
 11
-186.876
 21
-10.7023
  0
LINE
  8
0
 10
-186.876
 20
-10.7023
 11
-185.005
 21
-10.153
  0
LINE
  8
0
 10
-185.005
 20
-10.153
 11
-183.056
 21
-10.153
  0
LINE
  8
0
 10
-183.056
 20
-10.153
 11
-181.185
 21
-10.7023
  0
LINE
  8
0
 10
-181.185
 20
-10.7023
 11
-179.545
 21
-11.7564
  0
LINE
  8
0
 10
-179.545
 20
-11.7564
 11
-178.268
 21
-13.2299
  0
LINE
  8
0
 10
-178.268
 20
-13.2299
 11
-177.458
 21
-15.0035
  0
LINE
  8
0
 10
-177.458
 20
-15.0035
 11
-177.181
 21
-16.9333
  0
LINE
  8
0
 10
-177.181
 20
-16.9333
 11
-177.458
 21
-18.8632
  0
LINE
  8
0
 10
-177.458
 20
-18.8632
 11
-178.268
 21
-20.6367
  0
LINE
  8
0
 10
-178.268
 20
-20.6367
 11
-179.545
 21
-22.1102
  0
LINE
  8
0
 10
-179.545
 20
-22.1102
 11
-181.185
 21
-23.1643
  0
LINE
  8
0
 10
-181.185
 20
-23.1643
 11
-183.056
 21
-23.7136
  0
LINE
  8
0
 10
-183.056
 20
-23.7136
 11
-185.005
 21
-23.7136
  0
LINE
  8
0
 10
-136.984
 20
-23.7136
 11
-138.855
 21
-23.1643
  0
LINE
  8
0
 10
-138.855
 20
-23.1643
 11
-140.495
 21
-22.1102
  0
LINE
  8
0
 10
-140.495
 20
-22.1102
 11
-141.772
 21
-20.6367
  0
LINE
  8
0
 10
-141.772
 20
-20.6367
 11
-142.582
 21
-18.8632
  0
LINE
  8
0
 10
-142.582
 20
-18.8632
 11
-142.859
 21
-16.9333
  0
LINE
  8
0
 10
-142.859
 20
-16.9333
 11
-142.582
 21
-15.0035
  0
LINE
  8
0
 10
-142.582
 20
-15.0035
 11
-141.772
 21
-13.2299
  0
LINE
  8
0
 10
-141.772
 20
-13.2299
 11
-140.495
 21
-11.7564
  0
LINE
  8
0
 10
-140.495
 20
-11.7564
 11
-138.855
 21
-10.7023
  0
LINE
  8
0
 10
-138.855
 20
-10.7023
 11
-136.984
 21
-10.153
  0
LINE
  8
0
 10
-136.984
 20
-10.153
 11
-135.035
 21
-10.153
  0
LINE
  8
0
 10
-135.035
 20
-10.153
 11
-133.164
 21
-10.7023
  0
LINE
  8
0
 10
-133.164
 20
-10.7023
 11
-131.524
 21
-11.7564
  0
LINE
  8
0
 10
-131.524
 20
-11.7564
 11
-130.247
 21
-13.2299
  0
LINE
  8
0
 10
-130.247
 20
-13.2299
 11
-129.437
 21
-15.0035
  0
LINE
  8
0
 10
-129.437
 20
-15.0035
 11
-129.159
 21
-16.9333
  0
LINE
  8
0
 10
-129.159
 20
-16.9333
 11
-129.437
 21
-18.8632
  0
LINE
  8
0
 10
-129.437
 20
-18.8632
 11
-130.247
 21
-20.6367
  0
LINE
  8
0
 10
-130.247
 20
-20.6367
 11
-131.524
 21
-22.1102
  0
LINE
  8
0
 10
-131.524
 20
-22.1102
 11
-133.164
 21
-23.1643
  0
LINE
  8
0
 10
-133.164
 20
-23.1643
 11
-135.035
 21
-23.7136
  0
LINE
  8
0
 10
-135.035
 20
-23.7136
 11
-136.984
 21
-23.7136
  0
LINE
  8
0
 10
-30.3042
 20
-23.7136
 11
-32.175
 21
-23.1643
  0
LINE
  8
0
 10
-32.175
 20
-23.1643
 11
-33.8152
 21
-22.1102
  0
LINE
  8
0
 10
-33.8152
 20
-22.1102
 11
-35.092
 21
-20.6367
  0
LINE
  8
0
 10
-35.092
 20
-20.6367
 11
-35.9019
 21
-18.8632
  0
LINE
  8
0
 10
-35.9019
 20
-18.8632
 11
-36.1794
 21
-16.9333
  0
LINE
  8
0
 10
-36.1794
 20
-16.9333
 11
-35.9019
 21
-15.0035
  0
LINE
  8
0
 10
-35.9019
 20
-15.0035
 11
-35.092
 21
-13.2299
  0
LINE
  8
0
 10
-35.092
 20
-13.2299
 11
-33.8152
 21
-11.7564
  0
LINE
  8
0
 10
-33.8152
 20
-11.7564
 11
-32.175
 21
-10.7023
  0
LINE
  8
0
 10
-32.175
 20
-10.7023
 11
-30.3042
 21
-10.153
  0
LINE
  8
0
 10
-30.3042
 20
-10.153
 11
-28.3545
 21
-10.153
  0
LINE
  8
0
 10
-28.3545
 20
-10.153
 11
-26.4838
 21
-10.7023
  0
LINE
  8
0
 10
-26.4838
 20
-10.7023
 11
-24.8436
 21
-11.7564
  0
LINE
  8
0
 10
-24.8436
 20
-11.7564
 11
-23.5668
 21
-13.2299
  0
LINE
  8
0
 10
-23.5668
 20
-13.2299
 11
-22.7569
 21
-15.0035
  0
LINE
  8
0
 10
-22.7569
 20
-15.0035
 11
-22.4794
 21
-16.9333
  0
LINE
  8
0
 10
-22.4794
 20
-16.9333
 11
-22.7569
 21
-18.8632
  0
LINE
  8
0
 10
-22.7569
 20
-18.8632
 11
-23.5668
 21
-20.6367
  0
LINE
  8
0
 10
-23.5668
 20
-20.6367
 11
-24.8436
 21
-22.1102
  0
LINE
  8
0
 10
-24.8436
 20
-22.1102
 11
-26.4838
 21
-23.1643
  0
LINE
  8
0
 10
-26.4838
 20
-23.1643
 11
-28.3545
 21
-23.7136
  0
LINE
  8
0
 10
-28.3545
 20
-23.7136
 11
-30.3042
 21
-23.7136
  0
LINE
  8
0
 10
183.056
 20
-23.7136
 11
181.185
 21
-23.1643
  0
LINE
  8
0
 10
181.185
 20
-23.1643
 11
179.545
 21
-22.1102
  0
LINE
  8
0
 10
179.545
 20
-22.1102
 11
178.268
 21
-20.6367
  0
LINE
  8
0
 10
178.268
 20
-20.6367
 11
177.458
 21
-18.8632
  0
LINE
  8
0
 10
177.458
 20
-18.8632
 11
177.181
 21
-16.9333
  0
LINE
  8
0
 10
177.181
 20
-16.9333
 11
177.458
 21
-15.0035
  0
LINE
  8
0
 10
177.458
 20
-15.0035
 11
178.268
 21
-13.2299
  0
LINE
  8
0
 10
178.268
 20
-13.2299
 11
179.545
 21
-11.7564
  0
LINE
  8
0
 10
179.545
 20
-11.7564
 11
181.185
 21
-10.7023
  0
LINE
  8
0
 10
181.185
 20
-10.7023
 11
183.056
 21
-10.153
  0
LINE
  8
0
 10
183.056
 20
-10.153
 11
185.005
 21
-10.153
  0
LINE
  8
0
 10
185.005
 20
-10.153
 11
186.876
 21
-10.7023
  0
LINE
  8
0
 10
186.876
 20
-10.7023
 11
188.516
 21
-11.7564
  0
LINE
  8
0
 10
188.516
 20
-11.7564
 11
189.793
 21
-13.2299
  0
LINE
  8
0
 10
189.793
 20
-13.2299
 11
190.603
 21
-15.0035
  0
LINE
  8
0
 10
190.603
 20
-15.0035
 11
190.881
 21
-16.9333
  0
LINE
  8
0
 10
190.881
 20
-16.9333
 11
190.603
 21
-18.8632
  0
LINE
  8
0
 10
190.603
 20
-18.8632
 11
189.793
 21
-20.6367
  0
LINE
  8
0
 10
189.793
 20
-20.6367
 11
188.516
 21
-22.1102
  0
LINE
  8
0
 10
188.516
 20
-22.1102
 11
186.876
 21
-23.1643
  0
LINE
  8
0
 10
186.876
 20
-23.1643
 11
185.005
 21
-23.7136
  0
LINE
  8
0
 10
185.005
 20
-23.7136
 11
183.056
 21
-23.7136
  0
LINE
  8
0
 10
241.715
 20
-23.7136
 11
239.844
 21
-23.1643
  0
LINE
  8
0
 10
239.844
 20
-23.1643
 11
238.204
 21
-22.1102
  0
LINE
  8
0
 10
238.204
 20
-22.1102
 11
236.927
 21
-20.6367
  0
LINE
  8
0
 10
236.927
 20
-20.6367
 11
236.117
 21
-18.8632
  0
LINE
  8
0
 10
236.117
 20
-18.8632
 11
235.839
 21
-16.9333
  0
LINE
  8
0
 10
235.839
 20
-16.9333
 11
236.117
 21
-15.0035
  0
LINE
  8
0
 10
236.117
 20
-15.0035
 11
236.927
 21
-13.2299
  0
LINE
  8
0
 10
236.927
 20
-13.2299
 11
238.204
 21
-11.7564
  0
LINE
  8
0
 10
238.204
 20
-11.7564
 11
239.844
 21
-10.7023
  0
LINE
  8
0
 10
239.844
 20
-10.7023
 11
241.715
 21
-10.153
  0
LINE
  8
0
 10
241.715
 20
-10.153
 11
243.664
 21
-10.153
  0
LINE
  8
0
 10
243.664
 20
-10.153
 11
245.535
 21
-10.7023
  0
LINE
  8
0
 10
245.535
 20
-10.7023
 11
247.175
 21
-11.7564
  0
LINE
  8
0
 10
247.175
 20
-11.7564
 11
248.452
 21
-13.2299
  0
LINE
  8
0
 10
248.452
 20
-13.2299
 11
249.262
 21
-15.0035
  0
LINE
  8
0
 10
249.262
 20
-15.0035
 11
249.539
 21
-16.9333
  0
LINE
  8
0
 10
249.539
 20
-16.9333
 11
249.262
 21
-18.8632
  0
LINE
  8
0
 10
249.262
 20
-18.8632
 11
248.452
 21
-20.6367
  0
LINE
  8
0
 10
248.452
 20
-20.6367
 11
247.175
 21
-22.1102
  0
LINE
  8
0
 10
247.175
 20
-22.1102
 11
245.535
 21
-23.1643
  0
LINE
  8
0
 10
245.535
 20
-23.1643
 11
243.664
 21
-23.7136
  0
LINE
  8
0
 10
243.664
 20
-23.7136
 11
241.715
 21
-23.7136
  0
LINE
  8
0
 10
76.3757
 20
-23.7136
 11
74.505
 21
-23.1643
  0
LINE
  8
0
 10
74.505
 20
-23.1643
 11
72.8648
 21
-22.1102
  0
LINE
  8
0
 10
72.8648
 20
-22.1102
 11
71.588
 21
-20.6367
  0
LINE
  8
0
 10
71.588
 20
-20.6367
 11
70.7781
 21
-18.8632
  0
LINE
  8
0
 10
70.7781
 20
-18.8632
 11
70.5006
 21
-16.9333
  0
LINE
  8
0
 10
70.5006
 20
-16.9333
 11
70.7781
 21
-15.0035
  0
LINE
  8
0
 10
70.7781
 20
-15.0035
 11
71.588
 21
-13.2299
  0
LINE
  8
0
 10
71.588
 20
-13.2299
 11
72.8648
 21
-11.7564
  0
LINE
  8
0
 10
72.8648
 20
-11.7564
 11
74.505
 21
-10.7023
  0
LINE
  8
0
 10
74.505
 20
-10.7023
 11
76.3757
 21
-10.153
  0
LINE
  8
0
 10
76.3757
 20
-10.153
 11
78.3255
 21
-10.153
  0
LINE
  8
0
 10
78.3255
 20
-10.153
 11
80.1962
 21
-10.7023
  0
LINE
  8
0
 10
80.1962
 20
-10.7023
 11
81.8364
 21
-11.7564
  0
LINE
  8
0
 10
81.8364
 20
-11.7564
 11
83.1132
 21
-13.2299
  0
LINE
  8
0
 10
83.1132
 20
-13.2299
 11
83.9231
 21
-15.0035
  0
LINE
  8
0
 10
83.9231
 20
-15.0035
 11
84.2006
 21
-16.9333
  0
LINE
  8
0
 10
84.2006
 20
-16.9333
 11
83.9231
 21
-18.8632
  0
LINE
  8
0
 10
83.9231
 20
-18.8632
 11
83.1132
 21
-20.6367
  0
LINE
  8
0
 10
83.1132
 20
-20.6367
 11
81.8364
 21
-22.1102
  0
LINE
  8
0
 10
81.8364
 20
-22.1102
 11
80.1962
 21
-23.1643
  0
LINE
  8
0
 10
80.1962
 20
-23.1643
 11
78.3255
 21
-23.7136
  0
LINE
  8
0
 10
78.3255
 20
-23.7136
 11
76.3757
 21
-23.7136
  0
LINE
  8
0
 10
28.3545
 20
-23.7136
 11
26.4838
 21
-23.1643
  0
LINE
  8
0
 10
26.4838
 20
-23.1643
 11
24.8436
 21
-22.1102
  0
LINE
  8
0
 10
24.8436
 20
-22.1102
 11
23.5668
 21
-20.6367
  0
LINE
  8
0
 10
23.5668
 20
-20.6367
 11
22.7569
 21
-18.8632
  0
LINE
  8
0
 10
22.7569
 20
-18.8632
 11
22.4794
 21
-16.9333
  0
LINE
  8
0
 10
22.4794
 20
-16.9333
 11
22.7569
 21
-15.0035
  0
LINE
  8
0
 10
22.7569
 20
-15.0035
 11
23.5668
 21
-13.2299
  0
LINE
  8
0
 10
23.5668
 20
-13.2299
 11
24.8436
 21
-11.7564
  0
LINE
  8
0
 10
24.8436
 20
-11.7564
 11
26.4838
 21
-10.7023
  0
LINE
  8
0
 10
26.4838
 20
-10.7023
 11
28.3545
 21
-10.153
  0
LINE
  8
0
 10
28.3545
 20
-10.153
 11
30.3042
 21
-10.153
  0
LINE
  8
0
 10
30.3042
 20
-10.153
 11
32.175
 21
-10.7023
  0
LINE
  8
0
 10
32.175
 20
-10.7023
 11
33.8152
 21
-11.7564
  0
LINE
  8
0
 10
33.8152
 20
-11.7564
 11
35.092
 21
-13.2299
  0
LINE
  8
0
 10
35.092
 20
-13.2299
 11
35.9019
 21
-15.0035
  0
LINE
  8
0
 10
35.9019
 20
-15.0035
 11
36.1794
 21
-16.9333
  0
LINE
  8
0
 10
36.1794
 20
-16.9333
 11
35.9019
 21
-18.8632
  0
LINE
  8
0
 10
35.9019
 20
-18.8632
 11
35.092
 21
-20.6367
  0
LINE
  8
0
 10
35.092
 20
-20.6367
 11
33.8152
 21
-22.1102
  0
LINE
  8
0
 10
33.8152
 20
-22.1102
 11
32.175
 21
-23.1643
  0
LINE
  8
0
 10
32.175
 20
-23.1643
 11
30.3042
 21
-23.7136
  0
LINE
  8
0
 10
30.3042
 20
-23.7136
 11
28.3545
 21
-23.7136
  0
LINE
  8
0
 10
-0.974854
 20
-79.5936
 11
-2.84558
 21
-79.0443
  0
LINE
  8
0
 10
-2.84558
 20
-79.0443
 11
-4.48579
 21
-77.9902
  0
LINE
  8
0
 10
-4.48579
 20
-77.9902
 11
-5.76257
 21
-76.5167
  0
LINE
  8
0
 10
-5.76257
 20
-76.5167
 11
-6.57253
 21
-74.7432
  0
LINE
  8
0
 10
-6.57253
 20
-74.7432
 11
-6.84999
 21
-72.8133
  0
LINE
  8
0
 10
-6.84999
 20
-72.8133
 11
-6.57253
 21
-70.8835
  0
LINE
  8
0
 10
-6.57253
 20
-70.8835
 11
-5.76257
 21
-69.1099
  0
LINE
  8
0
 10
-5.76257
 20
-69.1099
 11
-4.48579
 21
-67.6364
  0
LINE
  8
0
 10
-4.48579
 20
-67.6364
 11
-2.84558
 21
-66.5824
  0
LINE
  8
0
 10
-2.84558
 20
-66.5824
 11
-0.974854
 21
-66.0331
  0
LINE
  8
0
 10
-0.974854
 20
-66.0331
 11
0.974854
 21
-66.0331
  0
LINE
  8
0
 10
0.974854
 20
-66.0331
 11
2.84558
 21
-66.5824
  0
LINE
  8
0
 10
2.84558
 20
-66.5824
 11
4.48579
 21
-67.6364
  0
LINE
  8
0
 10
4.48579
 20
-67.6364
 11
5.76257
 21
-69.1099
  0
LINE
  8
0
 10
5.76257
 20
-69.1099
 11
6.57253
 21
-70.8835
  0
LINE
  8
0
 10
6.57253
 20
-70.8835
 11
6.84999
 21
-72.8133
  0
LINE
  8
0
 10
6.84999
 20
-72.8133
 11
6.57253
 21
-74.7432
  0
LINE
  8
0
 10
6.57253
 20
-74.7432
 11
5.76257
 21
-76.5167
  0
LINE
  8
0
 10
5.76257
 20
-76.5167
 11
4.48579
 21
-77.9902
  0
LINE
  8
0
 10
4.48579
 20
-77.9902
 11
2.84558
 21
-79.0443
  0
LINE
  8
0
 10
2.84558
 20
-79.0443
 11
0.974854
 21
-79.5936
  0
LINE
  8
0
 10
0.974854
 20
-79.5936
 11
-0.974854
 21
-79.5936
  0
LINE
  8
0
 10
212.385
 20
-79.5936
 11
210.514
 21
-79.0443
  0
LINE
  8
0
 10
210.514
 20
-79.0443
 11
208.874
 21
-77.9902
  0
LINE
  8
0
 10
208.874
 20
-77.9902
 11
207.597
 21
-76.5167
  0
LINE
  8
0
 10
207.597
 20
-76.5167
 11
206.787
 21
-74.7432
  0
LINE
  8
0
 10
206.787
 20
-74.7432
 11
206.51
 21
-72.8133
  0
LINE
  8
0
 10
206.51
 20
-72.8133
 11
206.787
 21
-70.8835
  0
LINE
  8
0
 10
206.787
 20
-70.8835
 11
207.597
 21
-69.1099
  0
LINE
  8
0
 10
207.597
 20
-69.1099
 11
208.874
 21
-67.6364
  0
LINE
  8
0
 10
208.874
 20
-67.6364
 11
210.514
 21
-66.5824
  0
LINE
  8
0
 10
210.514
 20
-66.5824
 11
212.385
 21
-66.0331
  0
LINE
  8
0
 10
212.385
 20
-66.0331
 11
214.335
 21
-66.0331
  0
LINE
  8
0
 10
214.335
 20
-66.0331
 11
216.206
 21
-66.5824
  0
LINE
  8
0
 10
216.206
 20
-66.5824
 11
217.846
 21
-67.6364
  0
LINE
  8
0
 10
217.846
 20
-67.6364
 11
219.123
 21
-69.1099
  0
LINE
  8
0
 10
219.123
 20
-69.1099
 11
219.933
 21
-70.8835
  0
LINE
  8
0
 10
219.933
 20
-70.8835
 11
220.21
 21
-72.8133
  0
LINE
  8
0
 10
220.21
 20
-72.8133
 11
219.933
 21
-74.7432
  0
LINE
  8
0
 10
219.933
 20
-74.7432
 11
219.123
 21
-76.5167
  0
LINE
  8
0
 10
219.123
 20
-76.5167
 11
217.846
 21
-77.9902
  0
LINE
  8
0
 10
217.846
 20
-77.9902
 11
216.206
 21
-79.0443
  0
LINE
  8
0
 10
216.206
 20
-79.0443
 11
214.335
 21
-79.5936
  0
LINE
  8
0
 10
214.335
 20
-79.5936
 11
212.385
 21
-79.5936
  0
LINE
  8
0
 10
-107.655
 20
-79.5936
 11
-109.526
 21
-79.0443
  0
LINE
  8
0
 10
-109.526
 20
-79.0443
 11
-111.166
 21
-77.9902
  0
LINE
  8
0
 10
-111.166
 20
-77.9902
 11
-112.443
 21
-76.5167
  0
LINE
  8
0
 10
-112.443
 20
-76.5167
 11
-113.253
 21
-74.7432
  0
LINE
  8
0
 10
-113.253
 20
-74.7432
 11
-113.53
 21
-72.8133
  0
LINE
  8
0
 10
-113.53
 20
-72.8133
 11
-113.253
 21
-70.8835
  0
LINE
  8
0
 10
-113.253
 20
-70.8835
 11
-112.443
 21
-69.1099
  0
LINE
  8
0
 10
-112.443
 20
-69.1099
 11
-111.166
 21
-67.6364
  0
LINE
  8
0
 10
-111.166
 20
-67.6364
 11
-109.526
 21
-66.5824
  0
LINE
  8
0
 10
-109.526
 20
-66.5824
 11
-107.655
 21
-66.0331
  0
LINE
  8
0
 10
-107.655
 20
-66.0331
 11
-105.705
 21
-66.0331
  0
LINE
  8
0
 10
-105.705
 20
-66.0331
 11
-103.834
 21
-66.5824
  0
LINE
  8
0
 10
-103.834
 20
-66.5824
 11
-102.194
 21
-67.6364
  0
LINE
  8
0
 10
-102.194
 20
-67.6364
 11
-100.917
 21
-69.1099
  0
LINE
  8
0
 10
-100.917
 20
-69.1099
 11
-100.107
 21
-70.8835
  0
LINE
  8
0
 10
-100.107
 20
-70.8835
 11
-99.83
 21
-72.8133
  0
LINE
  8
0
 10
-99.83
 20
-72.8133
 11
-100.107
 21
-74.7432
  0
LINE
  8
0
 10
-100.107
 20
-74.7432
 11
-100.917
 21
-76.5167
  0
LINE
  8
0
 10
-100.917
 20
-76.5167
 11
-102.194
 21
-77.9902
  0
LINE
  8
0
 10
-102.194
 20
-77.9902
 11
-103.834
 21
-79.0443
  0
LINE
  8
0
 10
-103.834
 20
-79.0443
 11
-105.705
 21
-79.5936
  0
LINE
  8
0
 10
-105.705
 20
-79.5936
 11
-107.655
 21
-79.5936
  0
LINE
  8
0
 10
105.705
 20
-79.5936
 11
103.834
 21
-79.0443
  0
LINE
  8
0
 10
103.834
 20
-79.0443
 11
102.194
 21
-77.9902
  0
LINE
  8
0
 10
102.194
 20
-77.9902
 11
100.917
 21
-76.5167
  0
LINE
  8
0
 10
100.917
 20
-76.5167
 11
100.107
 21
-74.7432
  0
LINE
  8
0
 10
100.107
 20
-74.7432
 11
99.83
 21
-72.8133
  0
LINE
  8
0
 10
99.83
 20
-72.8133
 11
100.107
 21
-70.8835
  0
LINE
  8
0
 10
100.107
 20
-70.8835
 11
100.917
 21
-69.1099
  0
LINE
  8
0
 10
100.917
 20
-69.1099
 11
102.194
 21
-67.6364
  0
LINE
  8
0
 10
102.194
 20
-67.6364
 11
103.834
 21
-66.5824
  0
LINE
  8
0
 10
103.834
 20
-66.5824
 11
105.705
 21
-66.0331
  0
LINE
  8
0
 10
105.705
 20
-66.0331
 11
107.655
 21
-66.0331
  0
LINE
  8
0
 10
107.655
 20
-66.0331
 11
109.526
 21
-66.5824
  0
LINE
  8
0
 10
109.526
 20
-66.5824
 11
111.166
 21
-67.6364
  0
LINE
  8
0
 10
111.166
 20
-67.6364
 11
112.443
 21
-69.1099
  0
LINE
  8
0
 10
112.443
 20
-69.1099
 11
113.253
 21
-70.8835
  0
LINE
  8
0
 10
113.253
 20
-70.8835
 11
113.53
 21
-72.8133
  0
LINE
  8
0
 10
113.53
 20
-72.8133
 11
113.253
 21
-74.7432
  0
LINE
  8
0
 10
113.253
 20
-74.7432
 11
112.443
 21
-76.5167
  0
LINE
  8
0
 10
112.443
 20
-76.5167
 11
111.166
 21
-77.9902
  0
LINE
  8
0
 10
111.166
 20
-77.9902
 11
109.526
 21
-79.0443
  0
LINE
  8
0
 10
109.526
 20
-79.0443
 11
107.655
 21
-79.5936
  0
LINE
  8
0
 10
107.655
 20
-79.5936
 11
105.705
 21
-79.5936
  0
LINE
  8
0
 10
-214.335
 20
-79.5936
 11
-216.206
 21
-79.0443
  0
LINE
  8
0
 10
-216.206
 20
-79.0443
 11
-217.846
 21
-77.9902
  0
LINE
  8
0
 10
-217.846
 20
-77.9902
 11
-219.123
 21
-76.5167
  0
LINE
  8
0
 10
-219.123
 20
-76.5167
 11
-219.933
 21
-74.7432
  0
LINE
  8
0
 10
-219.933
 20
-74.7432
 11
-220.21
 21
-72.8133
  0
LINE
  8
0
 10
-220.21
 20
-72.8133
 11
-219.933
 21
-70.8835
  0
LINE
  8
0
 10
-219.933
 20
-70.8835
 11
-219.123
 21
-69.1099
  0
LINE
  8
0
 10
-219.123
 20
-69.1099
 11
-217.846
 21
-67.6364
  0
LINE
  8
0
 10
-217.846
 20
-67.6364
 11
-216.206
 21
-66.5824
  0
LINE
  8
0
 10
-216.206
 20
-66.5824
 11
-214.335
 21
-66.0331
  0
LINE
  8
0
 10
-214.335
 20
-66.0331
 11
-212.385
 21
-66.0331
  0
LINE
  8
0
 10
-212.385
 20
-66.0331
 11
-210.514
 21
-66.5824
  0
LINE
  8
0
 10
-210.514
 20
-66.5824
 11
-208.874
 21
-67.6364
  0
LINE
  8
0
 10
-208.874
 20
-67.6364
 11
-207.597
 21
-69.1099
  0
LINE
  8
0
 10
-207.597
 20
-69.1099
 11
-206.787
 21
-70.8835
  0
LINE
  8
0
 10
-206.787
 20
-70.8835
 11
-206.51
 21
-72.8133
  0
LINE
  8
0
 10
-206.51
 20
-72.8133
 11
-206.787
 21
-74.7432
  0
LINE
  8
0
 10
-206.787
 20
-74.7432
 11
-207.597
 21
-76.5167
  0
LINE
  8
0
 10
-207.597
 20
-76.5167
 11
-208.874
 21
-77.9902
  0
LINE
  8
0
 10
-208.874
 20
-77.9902
 11
-210.514
 21
-79.0443
  0
LINE
  8
0
 10
-210.514
 20
-79.0443
 11
-212.385
 21
-79.5936
  0
LINE
  8
0
 10
-212.385
 20
-79.5936
 11
-214.335
 21
-79.5936
  0
LINE
  8
0
 10
-30.3042
 20
-130.394
 11
-32.175
 21
-129.844
  0
LINE
  8
0
 10
-32.175
 20
-129.844
 11
-33.8152
 21
-128.79
  0
LINE
  8
0
 10
-33.8152
 20
-128.79
 11
-35.092
 21
-127.317
  0
LINE
  8
0
 10
-35.092
 20
-127.317
 11
-35.9019
 21
-125.543
  0
LINE
  8
0
 10
-35.9019
 20
-125.543
 11
-36.1794
 21
-123.613
  0
LINE
  8
0
 10
-36.1794
 20
-123.613
 11
-35.9019
 21
-121.683
  0
LINE
  8
0
 10
-35.9019
 20
-121.683
 11
-35.092
 21
-119.91
  0
LINE
  8
0
 10
-35.092
 20
-119.91
 11
-33.8152
 21
-118.436
  0
LINE
  8
0
 10
-33.8152
 20
-118.436
 11
-32.175
 21
-117.382
  0
LINE
  8
0
 10
-32.175
 20
-117.382
 11
-30.3042
 21
-116.833
  0
LINE
  8
0
 10
-30.3042
 20
-116.833
 11
-28.3545
 21
-116.833
  0
LINE
  8
0
 10
-28.3545
 20
-116.833
 11
-26.4838
 21
-117.382
  0
LINE
  8
0
 10
-26.4838
 20
-117.382
 11
-24.8436
 21
-118.436
  0
LINE
  8
0
 10
-24.8436
 20
-118.436
 11
-23.5668
 21
-119.91
  0
LINE
  8
0
 10
-23.5668
 20
-119.91
 11
-22.7569
 21
-121.683
  0
LINE
  8
0
 10
-22.7569
 20
-121.683
 11
-22.4794
 21
-123.613
  0
LINE
  8
0
 10
-22.4794
 20
-123.613
 11
-22.7569
 21
-125.543
  0
LINE
  8
0
 10
-22.7569
 20
-125.543
 11
-23.5668
 21
-127.317
  0
LINE
  8
0
 10
-23.5668
 20
-127.317
 11
-24.8436
 21
-128.79
  0
LINE
  8
0
 10
-24.8436
 20
-128.79
 11
-26.4838
 21
-129.844
  0
LINE
  8
0
 10
-26.4838
 20
-129.844
 11
-28.3545
 21
-130.394
  0
LINE
  8
0
 10
-28.3545
 20
-130.394
 11
-30.3042
 21
-130.394
  0
LINE
  8
0
 10
-136.984
 20
-130.394
 11
-138.855
 21
-129.844
  0
LINE
  8
0
 10
-138.855
 20
-129.844
 11
-140.495
 21
-128.79
  0
LINE
  8
0
 10
-140.495
 20
-128.79
 11
-141.772
 21
-127.317
  0
LINE
  8
0
 10
-141.772
 20
-127.317
 11
-142.582
 21
-125.543
  0
LINE
  8
0
 10
-142.582
 20
-125.543
 11
-142.859
 21
-123.613
  0
LINE
  8
0
 10
-142.859
 20
-123.613
 11
-142.582
 21
-121.683
  0
LINE
  8
0
 10
-142.582
 20
-121.683
 11
-141.772
 21
-119.91
  0
LINE
  8
0
 10
-141.772
 20
-119.91
 11
-140.495
 21
-118.436
  0
LINE
  8
0
 10
-140.495
 20
-118.436
 11
-138.855
 21
-117.382
  0
LINE
  8
0
 10
-138.855
 20
-117.382
 11
-136.984
 21
-116.833
  0
LINE
  8
0
 10
-136.984
 20
-116.833
 11
-135.035
 21
-116.833
  0
LINE
  8
0
 10
-135.035
 20
-116.833
 11
-133.164
 21
-117.382
  0
LINE
  8
0
 10
-133.164
 20
-117.382
 11
-131.524
 21
-118.436
  0
LINE
  8
0
 10
-131.524
 20
-118.436
 11
-130.247
 21
-119.91
  0
LINE
  8
0
 10
-130.247
 20
-119.91
 11
-129.437
 21
-121.683
  0
LINE
  8
0
 10
-129.437
 20
-121.683
 11
-129.159
 21
-123.613
  0
LINE
  8
0
 10
-129.159
 20
-123.613
 11
-129.437
 21
-125.543
  0
LINE
  8
0
 10
-129.437
 20
-125.543
 11
-130.247
 21
-127.317
  0
LINE
  8
0
 10
-130.247
 20
-127.317
 11
-131.524
 21
-128.79
  0
LINE
  8
0
 10
-131.524
 20
-128.79
 11
-133.164
 21
-129.844
  0
LINE
  8
0
 10
-133.164
 20
-129.844
 11
-135.035
 21
-130.394
  0
LINE
  8
0
 10
-135.035
 20
-130.394
 11
-136.984
 21
-130.394
  0
LINE
  8
0
 10
-78.3255
 20
-130.394
 11
-80.1962
 21
-129.844
  0
LINE
  8
0
 10
-80.1962
 20
-129.844
 11
-81.8364
 21
-128.79
  0
LINE
  8
0
 10
-81.8364
 20
-128.79
 11
-83.1132
 21
-127.317
  0
LINE
  8
0
 10
-83.1132
 20
-127.317
 11
-83.9231
 21
-125.543
  0
LINE
  8
0
 10
-83.9231
 20
-125.543
 11
-84.2006
 21
-123.613
  0
LINE
  8
0
 10
-84.2006
 20
-123.613
 11
-83.9231
 21
-121.683
  0
LINE
  8
0
 10
-83.9231
 20
-121.683
 11
-83.1132
 21
-119.91
  0
LINE
  8
0
 10
-83.1132
 20
-119.91
 11
-81.8364
 21
-118.436
  0
LINE
  8
0
 10
-81.8364
 20
-118.436
 11
-80.1962
 21
-117.382
  0
LINE
  8
0
 10
-80.1962
 20
-117.382
 11
-78.3255
 21
-116.833
  0
LINE
  8
0
 10
-78.3255
 20
-116.833
 11
-76.3757
 21
-116.833
  0
LINE
  8
0
 10
-76.3757
 20
-116.833
 11
-74.505
 21
-117.382
  0
LINE
  8
0
 10
-74.505
 20
-117.382
 11
-72.8648
 21
-118.436
  0
LINE
  8
0
 10
-72.8648
 20
-118.436
 11
-71.588
 21
-119.91
  0
LINE
  8
0
 10
-71.588
 20
-119.91
 11
-70.7781
 21
-121.683
  0
LINE
  8
0
 10
-70.7781
 20
-121.683
 11
-70.5006
 21
-123.613
  0
LINE
  8
0
 10
-70.5006
 20
-123.613
 11
-70.7781
 21
-125.543
  0
LINE
  8
0
 10
-70.7781
 20
-125.543
 11
-71.588
 21
-127.317
  0
LINE
  8
0
 10
-71.588
 20
-127.317
 11
-72.8648
 21
-128.79
  0
LINE
  8
0
 10
-72.8648
 20
-128.79
 11
-74.505
 21
-129.844
  0
LINE
  8
0
 10
-74.505
 20
-129.844
 11
-76.3757
 21
-130.394
  0
LINE
  8
0
 10
-76.3757
 20
-130.394
 11
-78.3255
 21
-130.394
  0
LINE
  8
0
 10
135.035
 20
-130.394
 11
133.164
 21
-129.844
  0
LINE
  8
0
 10
133.164
 20
-129.844
 11
131.524
 21
-128.79
  0
LINE
  8
0
 10
131.524
 20
-128.79
 11
130.247
 21
-127.317
  0
LINE
  8
0
 10
130.247
 20
-127.317
 11
129.437
 21
-125.543
  0
LINE
  8
0
 10
129.437
 20
-125.543
 11
129.159
 21
-123.613
  0
LINE
  8
0
 10
129.159
 20
-123.613
 11
129.437
 21
-121.683
  0
LINE
  8
0
 10
129.437
 20
-121.683
 11
130.247
 21
-119.91
  0
LINE
  8
0
 10
130.247
 20
-119.91
 11
131.524
 21
-118.436
  0
LINE
  8
0
 10
131.524
 20
-118.436
 11
133.164
 21
-117.382
  0
LINE
  8
0
 10
133.164
 20
-117.382
 11
135.035
 21
-116.833
  0
LINE
  8
0
 10
135.035
 20
-116.833
 11
136.984
 21
-116.833
  0
LINE
  8
0
 10
136.984
 20
-116.833
 11
138.855
 21
-117.382
  0
LINE
  8
0
 10
138.855
 20
-117.382
 11
140.495
 21
-118.436
  0
LINE
  8
0
 10
140.495
 20
-118.436
 11
141.772
 21
-119.91
  0
LINE
  8
0
 10
141.772
 20
-119.91
 11
142.582
 21
-121.683
  0
LINE
  8
0
 10
142.582
 20
-121.683
 11
142.859
 21
-123.613
  0
LINE
  8
0
 10
142.859
 20
-123.613
 11
142.582
 21
-125.543
  0
LINE
  8
0
 10
142.582
 20
-125.543
 11
141.772
 21
-127.317
  0
LINE
  8
0
 10
141.772
 20
-127.317
 11
140.495
 21
-128.79
  0
LINE
  8
0
 10
140.495
 20
-128.79
 11
138.855
 21
-129.844
  0
LINE
  8
0
 10
138.855
 20
-129.844
 11
136.984
 21
-130.394
  0
LINE
  8
0
 10
136.984
 20
-130.394
 11
135.035
 21
-130.394
  0
LINE
  8
0
 10
28.3545
 20
-130.394
 11
26.4838
 21
-129.844
  0
LINE
  8
0
 10
26.4838
 20
-129.844
 11
24.8436
 21
-128.79
  0
LINE
  8
0
 10
24.8436
 20
-128.79
 11
23.5668
 21
-127.317
  0
LINE
  8
0
 10
23.5668
 20
-127.317
 11
22.7569
 21
-125.543
  0
LINE
  8
0
 10
22.7569
 20
-125.543
 11
22.4794
 21
-123.613
  0
LINE
  8
0
 10
22.4794
 20
-123.613
 11
22.7569
 21
-121.683
  0
LINE
  8
0
 10
22.7569
 20
-121.683
 11
23.5668
 21
-119.91
  0
LINE
  8
0
 10
23.5668
 20
-119.91
 11
24.8436
 21
-118.436
  0
LINE
  8
0
 10
24.8436
 20
-118.436
 11
26.4838
 21
-117.382
  0
LINE
  8
0
 10
26.4838
 20
-117.382
 11
28.3545
 21
-116.833
  0
LINE
  8
0
 10
28.3545
 20
-116.833
 11
30.3042
 21
-116.833
  0
LINE
  8
0
 10
30.3042
 20
-116.833
 11
32.175
 21
-117.382
  0
LINE
  8
0
 10
32.175
 20
-117.382
 11
33.8152
 21
-118.436
  0
LINE
  8
0
 10
33.8152
 20
-118.436
 11
35.092
 21
-119.91
  0
LINE
  8
0
 10
35.092
 20
-119.91
 11
35.9019
 21
-121.683
  0
LINE
  8
0
 10
35.9019
 20
-121.683
 11
36.1794
 21
-123.613
  0
LINE
  8
0
 10
36.1794
 20
-123.613
 11
35.9019
 21
-125.543
  0
LINE
  8
0
 10
35.9019
 20
-125.543
 11
35.092
 21
-127.317
  0
LINE
  8
0
 10
35.092
 20
-127.317
 11
33.8152
 21
-128.79
  0
LINE
  8
0
 10
33.8152
 20
-128.79
 11
32.175
 21
-129.844
  0
LINE
  8
0
 10
32.175
 20
-129.844
 11
30.3042
 21
-130.394
  0
LINE
  8
0
 10
30.3042
 20
-130.394
 11
28.3545
 21
-130.394
  0
LINE
  8
0
 10
-243.664
 20
-130.394
 11
-245.535
 21
-129.844
  0
LINE
  8
0
 10
-245.535
 20
-129.844
 11
-247.175
 21
-128.79
  0
LINE
  8
0
 10
-247.175
 20
-128.79
 11
-248.452
 21
-127.317
  0
LINE
  8
0
 10
-248.452
 20
-127.317
 11
-249.262
 21
-125.543
  0
LINE
  8
0
 10
-249.262
 20
-125.543
 11
-249.539
 21
-123.613
  0
LINE
  8
0
 10
-249.539
 20
-123.613
 11
-249.262
 21
-121.683
  0
LINE
  8
0
 10
-249.262
 20
-121.683
 11
-248.452
 21
-119.91
  0
LINE
  8
0
 10
-248.452
 20
-119.91
 11
-247.175
 21
-118.436
  0
LINE
  8
0
 10
-247.175
 20
-118.436
 11
-245.535
 21
-117.382
  0
LINE
  8
0
 10
-245.535
 20
-117.382
 11
-243.664
 21
-116.833
  0
LINE
  8
0
 10
-243.664
 20
-116.833
 11
-241.715
 21
-116.833
  0
LINE
  8
0
 10
-241.715
 20
-116.833
 11
-239.844
 21
-117.382
  0
LINE
  8
0
 10
-239.844
 20
-117.382
 11
-238.204
 21
-118.436
  0
LINE
  8
0
 10
-238.204
 20
-118.436
 11
-236.927
 21
-119.91
  0
LINE
  8
0
 10
-236.927
 20
-119.91
 11
-236.117
 21
-121.683
  0
LINE
  8
0
 10
-236.117
 20
-121.683
 11
-235.839
 21
-123.613
  0
LINE
  8
0
 10
-235.839
 20
-123.613
 11
-236.117
 21
-125.543
  0
LINE
  8
0
 10
-236.117
 20
-125.543
 11
-236.927
 21
-127.317
  0
LINE
  8
0
 10
-236.927
 20
-127.317
 11
-238.204
 21
-128.79
  0
LINE
  8
0
 10
-238.204
 20
-128.79
 11
-239.844
 21
-129.844
  0
LINE
  8
0
 10
-239.844
 20
-129.844
 11
-241.715
 21
-130.394
  0
LINE
  8
0
 10
-241.715
 20
-130.394
 11
-243.664
 21
-130.394
  0
LINE
  8
0
 10
-185.005
 20
-130.394
 11
-186.876
 21
-129.844
  0
LINE
  8
0
 10
-186.876
 20
-129.844
 11
-188.516
 21
-128.79
  0
LINE
  8
0
 10
-188.516
 20
-128.79
 11
-189.793
 21
-127.317
  0
LINE
  8
0
 10
-189.793
 20
-127.317
 11
-190.603
 21
-125.543
  0
LINE
  8
0
 10
-190.603
 20
-125.543
 11
-190.881
 21
-123.613
  0
LINE
  8
0
 10
-190.881
 20
-123.613
 11
-190.603
 21
-121.683
  0
LINE
  8
0
 10
-190.603
 20
-121.683
 11
-189.793
 21
-119.91
  0
LINE
  8
0
 10
-189.793
 20
-119.91
 11
-188.516
 21
-118.436
  0
LINE
  8
0
 10
-188.516
 20
-118.436
 11
-186.876
 21
-117.382
  0
LINE
  8
0
 10
-186.876
 20
-117.382
 11
-185.005
 21
-116.833
  0
LINE
  8
0
 10
-185.005
 20
-116.833
 11
-183.056
 21
-116.833
  0
LINE
  8
0
 10
-183.056
 20
-116.833
 11
-181.185
 21
-117.382
  0
LINE
  8
0
 10
-181.185
 20
-117.382
 11
-179.545
 21
-118.436
  0
LINE
  8
0
 10
-179.545
 20
-118.436
 11
-178.268
 21
-119.91
  0
LINE
  8
0
 10
-178.268
 20
-119.91
 11
-177.458
 21
-121.683
  0
LINE
  8
0
 10
-177.458
 20
-121.683
 11
-177.181
 21
-123.613
  0
LINE
  8
0
 10
-177.181
 20
-123.613
 11
-177.458
 21
-125.543
  0
LINE
  8
0
 10
-177.458
 20
-125.543
 11
-178.268
 21
-127.317
  0
LINE
  8
0
 10
-178.268
 20
-127.317
 11
-179.545
 21
-128.79
  0
LINE
  8
0
 10
-179.545
 20
-128.79
 11
-181.185
 21
-129.844
  0
LINE
  8
0
 10
-181.185
 20
-129.844
 11
-183.056
 21
-130.394
  0
LINE
  8
0
 10
-183.056
 20
-130.394
 11
-185.005
 21
-130.394
  0
LINE
  8
0
 10
241.715
 20
-130.394
 11
239.844
 21
-129.844
  0
LINE
  8
0
 10
239.844
 20
-129.844
 11
238.204
 21
-128.79
  0
LINE
  8
0
 10
238.204
 20
-128.79
 11
236.927
 21
-127.317
  0
LINE
  8
0
 10
236.927
 20
-127.317
 11
236.117
 21
-125.543
  0
LINE
  8
0
 10
236.117
 20
-125.543
 11
235.839
 21
-123.613
  0
LINE
  8
0
 10
235.839
 20
-123.613
 11
236.117
 21
-121.683
  0
LINE
  8
0
 10
236.117
 20
-121.683
 11
236.927
 21
-119.91
  0
LINE
  8
0
 10
236.927
 20
-119.91
 11
238.204
 21
-118.436
  0
LINE
  8
0
 10
238.204
 20
-118.436
 11
239.844
 21
-117.382
  0
LINE
  8
0
 10
239.844
 20
-117.382
 11
241.715
 21
-116.833
  0
LINE
  8
0
 10
241.715
 20
-116.833
 11
243.664
 21
-116.833
  0
LINE
  8
0
 10
243.664
 20
-116.833
 11
245.535
 21
-117.382
  0
LINE
  8
0
 10
245.535
 20
-117.382
 11
247.175
 21
-118.436
  0
LINE
  8
0
 10
247.175
 20
-118.436
 11
248.452
 21
-119.91
  0
LINE
  8
0
 10
248.452
 20
-119.91
 11
249.262
 21
-121.683
  0
LINE
  8
0
 10
249.262
 20
-121.683
 11
249.539
 21
-123.613
  0
LINE
  8
0
 10
249.539
 20
-123.613
 11
249.262
 21
-125.543
  0
LINE
  8
0
 10
249.262
 20
-125.543
 11
248.452
 21
-127.317
  0
LINE
  8
0
 10
248.452
 20
-127.317
 11
247.175
 21
-128.79
  0
LINE
  8
0
 10
247.175
 20
-128.79
 11
245.535
 21
-129.844
  0
LINE
  8
0
 10
245.535
 20
-129.844
 11
243.664
 21
-130.394
  0
LINE
  8
0
 10
243.664
 20
-130.394
 11
241.715
 21
-130.394
  0
LINE
  8
0
 10
183.056
 20
-130.394
 11
181.185
 21
-129.844
  0
LINE
  8
0
 10
181.185
 20
-129.844
 11
179.545
 21
-128.79
  0
LINE
  8
0
 10
179.545
 20
-128.79
 11
178.268
 21
-127.317
  0
LINE
  8
0
 10
178.268
 20
-127.317
 11
177.458
 21
-125.543
  0
LINE
  8
0
 10
177.458
 20
-125.543
 11
177.181
 21
-123.613
  0
LINE
  8
0
 10
177.181
 20
-123.613
 11
177.458
 21
-121.683
  0
LINE
  8
0
 10
177.458
 20
-121.683
 11
178.268
 21
-119.91
  0
LINE
  8
0
 10
178.268
 20
-119.91
 11
179.545
 21
-118.436
  0
LINE
  8
0
 10
179.545
 20
-118.436
 11
181.185
 21
-117.382
  0
LINE
  8
0
 10
181.185
 20
-117.382
 11
183.056
 21
-116.833
  0
LINE
  8
0
 10
183.056
 20
-116.833
 11
185.005
 21
-116.833
  0
LINE
  8
0
 10
185.005
 20
-116.833
 11
186.876
 21
-117.382
  0
LINE
  8
0
 10
186.876
 20
-117.382
 11
188.516
 21
-118.436
  0
LINE
  8
0
 10
188.516
 20
-118.436
 11
189.793
 21
-119.91
  0
LINE
  8
0
 10
189.793
 20
-119.91
 11
190.603
 21
-121.683
  0
LINE
  8
0
 10
190.603
 20
-121.683
 11
190.881
 21
-123.613
  0
LINE
  8
0
 10
190.881
 20
-123.613
 11
190.603
 21
-125.543
  0
LINE
  8
0
 10
190.603
 20
-125.543
 11
189.793
 21
-127.317
  0
LINE
  8
0
 10
189.793
 20
-127.317
 11
188.516
 21
-128.79
  0
LINE
  8
0
 10
188.516
 20
-128.79
 11
186.876
 21
-129.844
  0
LINE
  8
0
 10
186.876
 20
-129.844
 11
185.005
 21
-130.394
  0
LINE
  8
0
 10
185.005
 20
-130.394
 11
183.056
 21
-130.394
  0
LINE
  8
0
 10
76.3757
 20
-130.394
 11
74.505
 21
-129.844
  0
LINE
  8
0
 10
74.505
 20
-129.844
 11
72.8648
 21
-128.79
  0
LINE
  8
0
 10
72.8648
 20
-128.79
 11
71.588
 21
-127.317
  0
LINE
  8
0
 10
71.588
 20
-127.317
 11
70.7781
 21
-125.543
  0
LINE
  8
0
 10
70.7781
 20
-125.543
 11
70.5006
 21
-123.613
  0
LINE
  8
0
 10
70.5006
 20
-123.613
 11
70.7781
 21
-121.683
  0
LINE
  8
0
 10
70.7781
 20
-121.683
 11
71.588
 21
-119.91
  0
LINE
  8
0
 10
71.588
 20
-119.91
 11
72.8648
 21
-118.436
  0
LINE
  8
0
 10
72.8648
 20
-118.436
 11
74.505
 21
-117.382
  0
LINE
  8
0
 10
74.505
 20
-117.382
 11
76.3757
 21
-116.833
  0
LINE
  8
0
 10
76.3757
 20
-116.833
 11
78.3255
 21
-116.833
  0
LINE
  8
0
 10
78.3255
 20
-116.833
 11
80.1962
 21
-117.382
  0
LINE
  8
0
 10
80.1962
 20
-117.382
 11
81.8364
 21
-118.436
  0
LINE
  8
0
 10
81.8364
 20
-118.436
 11
83.1132
 21
-119.91
  0
LINE
  8
0
 10
83.1132
 20
-119.91
 11
83.9231
 21
-121.683
  0
LINE
  8
0
 10
83.9231
 20
-121.683
 11
84.2006
 21
-123.613
  0
LINE
  8
0
 10
84.2006
 20
-123.613
 11
83.9231
 21
-125.543
  0
LINE
  8
0
 10
83.9231
 20
-125.543
 11
83.1132
 21
-127.317
  0
LINE
  8
0
 10
83.1132
 20
-127.317
 11
81.8364
 21
-128.79
  0
LINE
  8
0
 10
81.8364
 20
-128.79
 11
80.1962
 21
-129.844
  0
LINE
  8
0
 10
80.1962
 20
-129.844
 11
78.3255
 21
-130.394
  0
LINE
  8
0
 10
78.3255
 20
-130.394
 11
76.3757
 21
-130.394
  0
LINE
  8
0
 10
-274.031
 20
-169.39
 11
-275.619
 21
-168.236
  0
LINE
  8
0
 10
-275.619
 20
-168.236
 11
-276.225
 21
-166.37
  0
LINE
  8
0
 10
-276.225
 20
-166.37
 11
-275.619
 21
-164.504
  0
LINE
  8
0
 10
-275.619
 20
-164.504
 11
-274.031
 21
-163.35
  0
LINE
  8
0
 10
-274.031
 20
-163.35
 11
-272.069
 21
-163.35
  0
LINE
  8
0
 10
-272.069
 20
-163.35
 11
-270.481
 21
-164.504
  0
LINE
  8
0
 10
-270.481
 20
-164.504
 11
-269.875
 21
-166.37
  0
LINE
  8
0
 10
-269.875
 20
-166.37
 11
-270.481
 21
-168.236
  0
LINE
  8
0
 10
-270.481
 20
-168.236
 11
-272.069
 21
-169.39
  0
LINE
  8
0
 10
-272.069
 20
-169.39
 11
-274.031
 21
-169.39
  0
ENDSEC
  0
SECTION
  2
OBJECTS
  0
DICTIONARY
  0
ENDSEC
  0
EOF
