<?xml version="1.0" standalone="no"?>
<!DOCTYPE svg PUBLIC "-//W3C//DTD SVG 1.1//EN" "http://www.w3.org/Graphics/SVG/1.1/DTD/svg11.dtd">
<svg width="572mm" height="360mm" viewBox="-286 -180 572 360" xmlns="http://www.w3.org/2000/svg" version="1.1">
<title>OpenSCAD Model</title>
<path d="
M 285.75,-179.07 L -285.75,-179.07 L -285.75,179.07 L 285.75,179.07 z
M 272.069,-163.35 L 270.481,-164.504 L 269.875,-166.37 L 270.481,-168.236 L 272.069,-169.39 L 274.031,-169.39
 L 275.619,-168.236 L 276.225,-166.37 L 275.619,-164.504 L 274.031,-163.35 z
M 105.705,-133.766 L 103.834,-134.316 L 102.194,-135.37 L 100.917,-136.843 L 100.107,-138.617 L 99.83,-140.547
 L 100.107,-142.477 L 100.917,-144.25 L 102.194,-145.724 L 103.834,-146.778 L 105.705,-147.327 L 107.655,-147.327
 L 109.526,-146.778 L 111.166,-145.724 L 112.443,-144.25 L 113.253,-142.477 L 113.53,-140.547 L 113.253,-138.617
 L 112.443,-136.843 L 111.166,-135.37 L 109.526,-134.316 L 107.655,-133.766 z
M -214.335,-133.766 L -216.206,-134.316 L -217.846,-135.37 L -219.123,-136.843 L -219.933,-138.617 L -220.21,-140.547
 L -219.933,-142.477 L -219.123,-144.25 L -217.846,-145.724 L -216.206,-146.778 L -214.335,-147.327 L -212.385,-147.327
 L -210.514,-146.778 L -208.874,-145.724 L -207.597,-144.25 L -206.787,-142.477 L -206.51,-140.547 L -206.787,-138.617
 L -207.597,-136.843 L -208.874,-135.37 L -210.514,-134.316 L -212.385,-133.766 z
M -0.974854,-133.766 L -2.84558,-134.316 L -4.48579,-135.37 L -5.76257,-136.843 L -6.57253,-138.617 L -6.84999,-140.547
 L -6.57253,-142.477 L -5.76257,-144.25 L -4.48579,-145.724 L -2.84558,-146.778 L -0.974854,-147.327 L 0.974854,-147.327
 L 2.84558,-146.778 L 4.48579,-145.724 L 5.76257,-144.25 L 6.57253,-142.477 L 6.84999,-140.547 L 6.57253,-138.617
 L 5.76257,-136.843 L 4.48579,-135.37 L 2.84558,-134.316 L 0.974854,-133.766 z
M 212.385,-133.766 L 210.514,-134.316 L 208.874,-135.37 L 207.597,-136.843 L 206.787,-138.617 L 206.51,-140.547
 L 206.787,-142.477 L 207.597,-144.25 L 208.874,-145.724 L 210.514,-146.778 L 212.385,-147.327 L 214.335,-147.327
 L 216.206,-146.778 L 217.846,-145.724 L 219.123,-144.25 L 219.933,-142.477 L 220.21,-140.547 L 219.933,-138.617
 L 219.123,-136.843 L 217.846,-135.37 L 216.206,-134.316 L 214.335,-133.766 z
M -107.655,-133.766 L -109.526,-134.316 L -111.166,-135.37 L -112.443,-136.843 L -113.253,-138.617 L -113.53,-140.547
 L -113.253,-142.477 L -112.443,-144.25 L -111.166,-145.724 L -109.526,-146.778 L -107.655,-147.327 L -105.705,-147.327
 L -103.834,-146.778 L -102.194,-145.724 L -100.917,-144.25 L -100.107,-142.477 L -99.83,-140.547 L -100.107,-138.617
 L -100.917,-136.843 L -102.194,-135.37 L -103.834,-134.316 L -105.705,-133.766 z
M -78.3255,-82.9664 L -80.1962,-83.5157 L -81.8364,-84.5698 L -83.1132,-86.0433 L -83.9231,-87.8168 L -84.2006,-89.7467
 L -83.9231,-91.6765 L -83.1132,-93.4501 L -81.8364,-94.9236 L -80.1962,-95.9776 L -78.3255,-96.5269 L -76.3757,-96.5269
 L -74.505,-95.9776 L -72.8648,-94.9236 L -71.588,-93.4501 L -70.7781,-91.6765 L -70.5006,-89.7467 L -70.7781,-87.8168
 L -71.588,-86.0433 L -72.8648,-84.5698 L -74.505,-83.5157 L -76.3757,-82.9664 z
M -243.664,-82.9664 L -245.535,-83.5157 L -247.175,-84.5698 L -248.452,-86.0433 L -249.262,-87.8168 L -249.539,-89.7467
 L -249.262,-91.6765 L -248.452,-93.4501 L -247.175,-94.9236 L -245.535,-95.9776 L -243.664,-96.5269 L -241.715,-96.5269
 L -239.844,-95.9776 L -238.204,-94.9236 L -236.927,-93.4501 L -236.117,-91.6765 L -235.839,-89.7467 L -236.117,-87.8168
 L -236.927,-86.0433 L -238.204,-84.5698 L -239.844,-83.5157 L -241.715,-82.9664 z
M 183.056,-82.9664 L 181.185,-83.5157 L 179.545,-84.5698 L 178.268,-86.0433 L 177.458,-87.8168 L 177.181,-89.7467
 L 177.458,-91.6765 L 178.268,-93.4501 L 179.545,-94.9236 L 181.185,-95.9776 L 183.056,-96.5269 L 185.005,-96.5269
 L 186.876,-95.9776 L 188.516,-94.9236 L 189.793,-93.4501 L 190.603,-91.6765 L 190.881,-89.7467 L 190.603,-87.8168
 L 189.793,-86.0433 L 188.516,-84.5698 L 186.876,-83.5157 L 185.005,-82.9664 z
M 241.715,-82.9664 L 239.844,-83.5157 L 238.204,-84.5698 L 236.927,-86.0433 L 236.117,-87.8168 L 235.839,-89.7467
 L 236.117,-91.6765 L 236.927,-93.4501 L 238.204,-94.9236 L 239.844,-95.9776 L 241.715,-96.5269 L 243.664,-96.5269
 L 245.535,-95.9776 L 247.175,-94.9236 L 248.452,-93.4501 L 249.262,-91.6765 L 249.539,-89.7467 L 249.262,-87.8168
 L 248.452,-86.0433 L 247.175,-84.5698 L 245.535,-83.5157 L 243.664,-82.9664 z
M -136.984,-82.9664 L -138.855,-83.5157 L -140.495,-84.5698 L -141.772,-86.0433 L -142.582,-87.8168 L -142.859,-89.7467
 L -142.582,-91.6765 L -141.772,-93.4501 L -140.495,-94.9236 L -138.855,-95.9776 L -136.984,-96.5269 L -135.035,-96.5269
 L -133.164,-95.9776 L -131.524,-94.9236 L -130.247,-93.4501 L -129.437,-91.6765 L -129.159,-89.7467 L -129.437,-87.8168
 L -130.247,-86.0433 L -131.524,-84.5698 L -133.164,-83.5157 L -135.035,-82.9664 z
M 76.3757,-82.9664 L 74.505,-83.5157 L 72.8648,-84.5698 L 71.588,-86.0433 L 70.7781,-87.8168 L 70.5006,-89.7467
 L 70.7781,-91.6765 L 71.588,-93.4501 L 72.8648,-94.9236 L 74.505,-95.9776 L 76.3757,-96.5269 L 78.3255,-96.5269
 L 80.1962,-95.9776 L 81.8364,-94.9236 L 83.1132,-93.4501 L 83.9231,-91.6765 L 84.2006,-89.7467 L 83.9231,-87.8168
 L 83.1132,-86.0433 L 81.8364,-84.5698 L 80.1962,-83.5157 L 78.3255,-82.9664 z
M 28.3545,-82.9664 L 26.4838,-83.5157 L 24.8436,-84.5698 L 23.5668,-86.0433 L 22.7569,-87.8168 L 22.4794,-89.7467
 L 22.7569,-91.6765 L 23.5668,-93.4501 L 24.8436,-94.9236 L 26.4838,-95.9776 L 28.3545,-96.5269 L 30.3042,-96.5269
 L 32.175,-95.9776 L 33.8152,-94.9236 L 35.092,-93.4501 L 35.9019,-91.6765 L 36.1794,-89.7467 L 35.9019,-87.8168
 L 35.092,-86.0433 L 33.8152,-84.5698 L 32.175,-83.5157 L 30.3042,-82.9664 z
M -30.3042,-82.9664 L -32.175,-83.5157 L -33.8152,-84.5698 L -35.092,-86.0433 L -35.9019,-87.8168 L -36.1794,-89.7467
 L -35.9019,-91.6765 L -35.092,-93.4501 L -33.8152,-94.9236 L -32.175,-95.9776 L -30.3042,-96.5269 L -28.3545,-96.5269
 L -26.4838,-95.9776 L -24.8436,-94.9236 L -23.5668,-93.4501 L -22.7569,-91.6765 L -22.4794,-89.7467 L -22.7569,-87.8168
 L -23.5668,-86.0433 L -24.8436,-84.5698 L -26.4838,-83.5157 L -28.3545,-82.9664 z
M 135.035,-82.9664 L 133.164,-83.5157 L 131.524,-84.5698 L 130.247,-86.0433 L 129.437,-87.8168 L 129.159,-89.7467
 L 129.437,-91.6765 L 130.247,-93.4501 L 131.524,-94.9236 L 133.164,-95.9776 L 135.035,-96.5269 L 136.984,-96.5269
 L 138.855,-95.9776 L 140.495,-94.9236 L 141.772,-93.4501 L 142.582,-91.6765 L 142.859,-89.7467 L 142.582,-87.8168
 L 141.772,-86.0433 L 140.495,-84.5698 L 138.855,-83.5157 L 136.984,-82.9664 z
M -185.005,-82.9664 L -186.876,-83.5157 L -188.516,-84.5698 L -189.793,-86.0433 L -190.603,-87.8168 L -190.881,-89.7467
 L -190.603,-91.6765 L -189.793,-93.4501 L -188.516,-94.9236 L -186.876,-95.9776 L -185.005,-96.5269 L -183.056,-96.5269
 L -181.185,-95.9776 L -179.545,-94.9236 L -178.268,-93.4501 L -177.458,-91.6765 L -177.181,-89.7467 L -177.458,-87.8168
 L -178.268,-86.0433 L -179.545,-84.5698 L -181.185,-83.5157 L -183.056,-82.9664 z
M -107.655,-27.0864 L -109.526,-27.6357 L -111.166,-28.6898 L -112.443,-30.1633 L -113.253,-31.9368 L -113.53,-33.8667
 L -113.253,-35.7965 L -112.443,-37.5701 L -111.166,-39.0435 L -109.526,-40.0976 L -107.655,-40.6469 L -105.705,-40.6469
 L -103.834,-40.0976 L -102.194,-39.0435 L -100.917,-37.5701 L -100.107,-35.7965 L -99.83,-33.8667 L -100.107,-31.9368
 L -100.917,-30.1633 L -102.194,-28.6898 L -103.834,-27.6357 L -105.705,-27.0864 z
M 105.705,-27.0864 L 103.834,-27.6357 L 102.194,-28.6898 L 100.917,-30.1633 L 100.107,-31.9368 L 99.83,-33.8667
 L 100.107,-35.7965 L 100.917,-37.5701 L 102.194,-39.0435 L 103.834,-40.0976 L 105.705,-40.6469 L 107.655,-40.6469
 L 109.526,-40.0976 L 111.166,-39.0435 L 112.443,-37.5701 L 113.253,-35.7965 L 113.53,-33.8667 L 113.253,-31.9368
 L 112.443,-30.1633 L 111.166,-28.6898 L 109.526,-27.6357 L 107.655,-27.0864 z
M 212.385,-27.0864 L 210.514,-27.6357 L 208.874,-28.6898 L 207.597,-30.1633 L 206.787,-31.9368 L 206.51,-33.8667
 L 206.787,-35.7965 L 207.597,-37.5701 L 208.874,-39.0435 L 210.514,-40.0976 L 212.385,-40.6469 L 214.335,-40.6469
 L 216.206,-40.0976 L 217.846,-39.0435 L 219.123,-37.5701 L 219.933,-35.7965 L 220.21,-33.8667 L 219.933,-31.9368
 L 219.123,-30.1633 L 217.846,-28.6898 L 216.206,-27.6357 L 214.335,-27.0864 z
M -0.974854,-27.0864 L -2.84558,-27.6357 L -4.48579,-28.6898 L -5.76257,-30.1633 L -6.57253,-31.9368 L -6.84999,-33.8667
 L -6.57253,-35.7965 L -5.76257,-37.5701 L -4.48579,-39.0435 L -2.84558,-40.0976 L -0.974854,-40.6469 L 0.974854,-40.6469
 L 2.84558,-40.0976 L 4.48579,-39.0435 L 5.76257,-37.5701 L 6.57253,-35.7965 L 6.84999,-33.8667 L 6.57253,-31.9368
 L 5.76257,-30.1633 L 4.48579,-28.6898 L 2.84558,-27.6357 L 0.974854,-27.0864 z
M -214.335,-27.0864 L -216.206,-27.6357 L -217.846,-28.6898 L -219.123,-30.1633 L -219.933,-31.9368 L -220.21,-33.8667
 L -219.933,-35.7965 L -219.123,-37.5701 L -217.846,-39.0435 L -216.206,-40.0976 L -214.335,-40.6469 L -212.385,-40.6469
 L -210.514,-40.0976 L -208.874,-39.0435 L -207.597,-37.5701 L -206.787,-35.7965 L -206.51,-33.8667 L -206.787,-31.9368
 L -207.597,-30.1633 L -208.874,-28.6898 L -210.514,-27.6357 L -212.385,-27.0864 z
M 135.035,23.7136 L 133.164,23.1643 L 131.524,22.1102 L 130.247,20.6367 L 129.437,18.8632 L 129.159,16.9333
 L 129.437,15.0035 L 130.247,13.2299 L 131.524,11.7564 L 133.164,10.7023 L 135.035,10.153 L 136.984,10.153
 L 138.855,10.7023 L 140.495,11.7564 L 141.772,13.2299 L 142.582,15.0035 L 142.859,16.9333 L 142.582,18.8632
 L 141.772,20.6367 L 140.495,22.1102 L 138.855,23.1643 L 136.984,23.7136 z
M -243.664,23.7136 L -245.535,23.1643 L -247.175,22.1102 L -248.452,20.6367 L -249.262,18.8632 L -249.539,16.9333
 L -249.262,15.0035 L -248.452,13.2299 L -247.175,11.7564 L -245.535,10.7023 L -243.664,10.153 L -241.715,10.153
 L -239.844,10.7023 L -238.204,11.7564 L -236.927,13.2299 L -236.117,15.0035 L -235.839,16.9333 L -236.117,18.8632
 L -236.927,20.6367 L -238.204,22.1102 L -239.844,23.1643 L -241.715,23.7136 z
M -78.3255,23.7136 L -80.1962,23.1643 L -81.8364,22.1102 L -83.1132,20.6367 L -83.9231,18.8632 L -84.2006,16.9333
 L -83.9231,15.0035 L -83.1132,13.2299 L -81.8364,11.7564 L -80.1962,10.7023 L -78.3255,10.153 L -76.3757,10.153
 L -74.505,10.7023 L -72.8648,11.7564 L -71.588,13.2299 L -70.7781,15.0035 L -70.5006,16.9333 L -70.7781,18.8632
 L -71.588,20.6367 L -72.8648,22.1102 L -74.505,23.1643 L -76.3757,23.7136 z
M -185.005,23.7136 L -186.876,23.1643 L -188.516,22.1102 L -189.793,20.6367 L -190.603,18.8632 L -190.881,16.9333
 L -190.603,15.0035 L -189.793,13.2299 L -188.516,11.7564 L -186.876,10.7023 L -185.005,10.153 L -183.056,10.153
 L -181.185,10.7023 L -179.545,11.7564 L -178.268,13.2299 L -177.458,15.0035 L -177.181,16.9333 L -177.458,18.8632
 L -178.268,20.6367 L -179.545,22.1102 L -181.185,23.1643 L -183.056,23.7136 z
M -136.984,23.7136 L -138.855,23.1643 L -140.495,22.1102 L -141.772,20.6367 L -142.582,18.8632 L -142.859,16.9333
 L -142.582,15.0035 L -141.772,13.2299 L -140.495,11.7564 L -138.855,10.7023 L -136.984,10.153 L -135.035,10.153
 L -133.164,10.7023 L -131.524,11.7564 L -130.247,13.2299 L -129.437,15.0035 L -129.159,16.9333 L -129.437,18.8632
 L -130.247,20.6367 L -131.524,22.1102 L -133.164,23.1643 L -135.035,23.7136 z
M -30.3042,23.7136 L -32.175,23.1643 L -33.8152,22.1102 L -35.092,20.6367 L -35.9019,18.8632 L -36.1794,16.9333
 L -35.9019,15.0035 L -35.092,13.2299 L -33.8152,11.7564 L -32.175,10.7023 L -30.3042,10.153 L -28.3545,10.153
 L -26.4838,10.7023 L -24.8436,11.7564 L -23.5668,13.2299 L -22.7569,15.0035 L -22.4794,16.9333 L -22.7569,18.8632
 L -23.5668,20.6367 L -24.8436,22.1102 L -26.4838,23.1643 L -28.3545,23.7136 z
M 183.056,23.7136 L 181.185,23.1643 L 179.545,22.1102 L 178.268,20.6367 L 177.458,18.8632 L 177.181,16.9333
 L 177.458,15.0035 L 178.268,13.2299 L 179.545,11.7564 L 181.185,10.7023 L 183.056,10.153 L 185.005,10.153
 L 186.876,10.7023 L 188.516,11.7564 L 189.793,13.2299 L 190.603,15.0035 L 190.881,16.9333 L 190.603,18.8632
 L 189.793,20.6367 L 188.516,22.1102 L 186.876,23.1643 L 185.005,23.7136 z
M 241.715,23.7136 L 239.844,23.1643 L 238.204,22.1102 L 236.927,20.6367 L 236.117,18.8632 L 235.839,16.9333
 L 236.117,15.0035 L 236.927,13.2299 L 238.204,11.7564 L 239.844,10.7023 L 241.715,10.153 L 243.664,10.153
 L 245.535,10.7023 L 247.175,11.7564 L 248.452,13.2299 L 249.262,15.0035 L 249.539,16.9333 L 249.262,18.8632
 L 248.452,20.6367 L 247.175,22.1102 L 245.535,23.1643 L 243.664,23.7136 z
M 76.3757,23.7136 L 74.505,23.1643 L 72.8648,22.1102 L 71.588,20.6367 L 70.7781,18.8632 L 70.5006,16.9333
 L 70.7781,15.0035 L 71.588,13.2299 L 72.8648,11.7564 L 74.505,10.7023 L 76.3757,10.153 L 78.3255,10.153
 L 80.1962,10.7023 L 81.8364,11.7564 L 83.1132,13.2299 L 83.9231,15.0035 L 84.2006,16.9333 L 83.9231,18.8632
 L 83.1132,20.6367 L 81.8364,22.1102 L 80.1962,23.1643 L 78.3255,23.7136 z
M 28.3545,23.7136 L 26.4838,23.1643 L 24.8436,22.1102 L 23.5668,20.6367 L 22.7569,18.8632 L 22.4794,16.9333
 L 22.7569,15.0035 L 23.5668,13.2299 L 24.8436,11.7564 L 26.4838,10.7023 L 28.3545,10.153 L 30.3042,10.153
 L 32.175,10.7023 L 33.8152,11.7564 L 35.092,13.2299 L 35.9019,15.0035 L 36.1794,16.9333 L 35.9019,18.8632
 L 35.092,20.6367 L 33.8152,22.1102 L 32.175,23.1643 L 30.3042,23.7136 z
M -0.974854,79.5936 L -2.84558,79.0443 L -4.48579,77.9902 L -5.76257,76.5167 L -6.57253,74.7432 L -6.84999,72.8133
 L -6.57253,70.8835 L -5.76257,69.1099 L -4.48579,67.6364 L -2.84558,66.5824 L -0.974854,66.0331 L 0.974854,66.0331
 L 2.84558,66.5824 L 4.48579,67.6364 L 5.76257,69.1099 L 6.57253,70.8835 L 6.84999,72.8133 L 6.57253,74.7432
 L 5.76257,76.5167 L 4.48579,77.9902 L 2.84558,79.0443 L 0.974854,79.5936 z
M 212.385,79.5936 L 210.514,79.0443 L 208.874,77.9902 L 207.597,76.5167 L 206.787,74.7432 L 206.51,72.8133
 L 206.787,70.8835 L 207.597,69.1099 L 208.874,67.6364 L 210.514,66.5824 L 212.385,66.0331 L 214.335,66.0331
 L 216.206,66.5824 L 217.846,67.6364 L 219.123,69.1099 L 219.933,70.8835 L 220.21,72.8133 L 219.933,74.7432
 L 219.123,76.5167 L 217.846,77.9902 L 216.206,79.0443 L 214.335,79.5936 z
M -107.655,79.5936 L -109.526,79.0443 L -111.166,77.9902 L -112.443,76.5167 L -113.253,74.7432 L -113.53,72.8133
 L -113.253,70.8835 L -112.443,69.1099 L -111.166,67.6364 L -109.526,66.5824 L -107.655,66.0331 L -105.705,66.0331
 L -103.834,66.5824 L -102.194,67.6364 L -100.917,69.1099 L -100.107,70.8835 L -99.83,72.8133 L -100.107,74.7432
 L -100.917,76.5167 L -102.194,77.9902 L -103.834,79.0443 L -105.705,79.5936 z
M 105.705,79.5936 L 103.834,79.0443 L 102.194,77.9902 L 100.917,76.5167 L 100.107,74.7432 L 99.83,72.8133
 L 100.107,70.8835 L 100.917,69.1099 L 102.194,67.6364 L 103.834,66.5824 L 105.705,66.0331 L 107.655,66.0331
 L 109.526,66.5824 L 111.166,67.6364 L 112.443,69.1099 L 113.253,70.8835 L 113.53,72.8133 L 113.253,74.7432
 L 112.443,76.5167 L 111.166,77.9902 L 109.526,79.0443 L 107.655,79.5936 z
M -214.335,79.5936 L -216.206,79.0443 L -217.846,77.9902 L -219.123,76.5167 L -219.933,74.7432 L -220.21,72.8133
 L -219.933,70.8835 L -219.123,69.1099 L -217.846,67.6364 L -216.206,66.5824 L -214.335,66.0331 L -212.385,66.0331
 L -210.514,66.5824 L -208.874,67.6364 L -207.597,69.1099 L -206.787,70.8835 L -206.51,72.8133 L -206.787,74.7432
 L -207.597,76.5167 L -208.874,77.9902 L -210.514,79.0443 L -212.385,79.5936 z
M -30.3042,130.394 L -32.175,129.844 L -33.8152,128.79 L -35.092,127.317 L -35.9019,125.543 L -36.1794,123.613
 L -35.9019,121.683 L -35.092,119.91 L -33.8152,118.436 L -32.175,117.382 L -30.3042,116.833 L -28.3545,116.833
 L -26.4838,117.382 L -24.8436,118.436 L -23.5668,119.91 L -22.7569,121.683 L -22.4794,123.613 L -22.7569,125.543
 L -23.5668,127.317 L -24.8436,128.79 L -26.4838,129.844 L -28.3545,130.394 z
M -136.984,130.394 L -138.855,129.844 L -140.495,128.79 L -141.772,127.317 L -142.582,125.543 L -142.859,123.613
 L -142.582,121.683 L -141.772,119.91 L -140.495,118.436 L -138.855,117.382 L -136.984,116.833 L -135.035,116.833
 L -133.164,117.382 L -131.524,118.436 L -130.247,119.91 L -129.437,121.683 L -129.159,123.613 L -129.437,125.543
 L -130.247,127.317 L -131.524,128.79 L -133.164,129.844 L -135.035,130.394 z
M -78.3255,130.394 L -80.1962,129.844 L -81.8364,128.79 L -83.1132,127.317 L -83.9231,125.543 L -84.2006,123.613
 L -83.9231,121.683 L -83.1132,119.91 L -81.8364,118.436 L -80.1962,117.382 L -78.3255,116.833 L -76.3757,116.833
 L -74.505,117.382 L -72.8648,118.436 L -71.588,119.91 L -70.7781,121.683 L -70.5006,123.613 L -70.7781,125.543
 L -71.588,127.317 L -72.8648,128.79 L -74.505,129.844 L -76.3757,130.394 z
M 135.035,130.394 L 133.164,129.844 L 131.524,128.79 L 130.247,127.317 L 129.437,125.543 L 129.159,123.613
 L 129.437,121.683 L 130.247,119.91 L 131.524,118.436 L 133.164,117.382 L 135.035,116.833 L 136.984,116.833
 L 138.855,117.382 L 140.495,118.436 L 141.772,119.91 L 142.582,121.683 L 142.859,123.613 L 142.582,125.543
 L 141.772,127.317 L 140.495,128.79 L 138.855,129.844 L 136.984,130.394 z
M 28.3545,130.394 L 26.4838,129.844 L 24.8436,128.79 L 23.5668,127.317 L 22.7569,125.543 L 22.4794,123.613
 L 22.7569,121.683 L 23.5668,119.91 L 24.8436,118.436 L 26.4838,117.382 L 28.3545,116.833 L 30.3042,116.833
 L 32.175,117.382 L 33.8152,118.436 L 35.092,119.91 L 35.9019,121.683 L 36.1794,123.613 L 35.9019,125.543
 L 35.092,127.317 L 33.8152,128.79 L 32.175,129.844 L 30.3042,130.394 z
M -243.664,130.394 L -245.535,129.844 L -247.175,128.79 L -248.452,127.317 L -249.262,125.543 L -249.539,123.613
 L -249.262,121.683 L -248.452,119.91 L -247.175,118.436 L -245.535,117.382 L -243.664,116.833 L -241.715,116.833
 L -239.844,117.382 L -238.204,118.436 L -236.927,119.91 L -236.117,121.683 L -235.839,123.613 L -236.117,125.543
 L -236.927,127.317 L -238.204,128.79 L -239.844,129.844 L -241.715,130.394 z
M -185.005,130.394 L -186.876,129.844 L -188.516,128.79 L -189.793,127.317 L -190.603,125.543 L -190.881,123.613
 L -190.603,121.683 L -189.793,119.91 L -188.516,118.436 L -186.876,117.382 L -185.005,116.833 L -183.056,116.833
 L -181.185,117.382 L -179.545,118.436 L -178.268,119.91 L -177.458,121.683 L -177.181,123.613 L -177.458,125.543
 L -178.268,127.317 L -179.545,128.79 L -181.185,129.844 L -183.056,130.394 z
M 241.715,130.394 L 239.844,129.844 L 238.204,128.79 L 236.927,127.317 L 236.117,125.543 L 235.839,123.613
 L 236.117,121.683 L 236.927,119.91 L 238.204,118.436 L 239.844,117.382 L 241.715,116.833 L 243.664,116.833
 L 245.535,117.382 L 247.175,118.436 L 248.452,119.91 L 249.262,121.683 L 249.539,123.613 L 249.262,125.543
 L 248.452,127.317 L 247.175,128.79 L 245.535,129.844 L 243.664,130.394 z
M 183.056,130.394 L 181.185,129.844 L 179.545,128.79 L 178.268,127.317 L 177.458,125.543 L 177.181,123.613
 L 177.458,121.683 L 178.268,119.91 L 179.545,118.436 L 181.185,117.382 L 183.056,116.833 L 185.005,116.833
 L 186.876,117.382 L 188.516,118.436 L 189.793,119.91 L 190.603,121.683 L 190.881,123.613 L 190.603,125.543
 L 189.793,127.317 L 188.516,128.79 L 186.876,129.844 L 185.005,130.394 z
M 76.3757,130.394 L 74.505,129.844 L 72.8648,128.79 L 71.588,127.317 L 70.7781,125.543 L 70.5006,123.613
 L 70.7781,121.683 L 71.588,119.91 L 72.8648,118.436 L 74.505,117.382 L 76.3757,116.833 L 78.3255,116.833
 L 80.1962,117.382 L 81.8364,118.436 L 83.1132,119.91 L 83.9231,121.683 L 84.2006,123.613 L 83.9231,125.543
 L 83.1132,127.317 L 81.8364,128.79 L 80.1962,129.844 L 78.3255,130.394 z
M -274.031,169.39 L -275.619,168.236 L -276.225,166.37 L -275.619,164.504 L -274.031,163.35 L -272.069,163.35
 L -270.481,164.504 L -269.875,166.37 L -270.481,168.236 L -272.069,169.39 z
" stroke="black" fill="lightgray" stroke-width="0.5"/>
</svg>
